<?xml version="1.0" encoding="UTF-8"?> <svg xmlns="http://www.w3.org/2000/svg" id="Layer_1" data-name="Layer 1" viewBox="0 0 1131.74 811.3"><defs><style>.cls-1,.cls-4{fill:#bbb;}.cls-1,.cls-3{opacity:0.27;}.cls-1{isolation:isolate;}.cls-2{fill:#bbd915;}.cls-5{fill:#57009b;}.cls-6{fill:#d2bfe8;}.cls-7{fill:#e6e9ed;}.cls-8{fill:#c19fe2;}.cls-9{fill:#ffeaa7;}.cls-10{fill:#3e3d43;}.cls-11{fill:#77767e;}.cls-12{fill:#d5e271;}.cls-13{fill:#fff;}</style></defs><title>evolv_illustrationth</title><path id="path3554" class="cls-1" d="M946.05,724.39c-1.17.29-2.55,4.07-3.14,8.84-1.07,8.65.11,8.89,5.77,1.17,2.11-2.86,4.21-5.31,4.7-5.45s1,1.86,1,4.54a24.91,24.91,0,0,0,.74,6c.94,1.89,2.53.08,2.78-3.21a33.61,33.61,0,0,0-.65-7.28c-.84-4.14-.93-4.15-3.7-2.77-1.55.76-3.77,2-4.94,2.73-1.93,1.2-2.08,1-1.8-1.38.17-1.46,0-2.8-.33-3A.57.57,0,0,0,946.05,724.39ZM759.43,782.07c-2.12.63-2.41.95-1.28,1.38s1.26.62-.12,1a2.26,2.26,0,0,0-1.5,2.23,31.92,31.92,0,0,1-.86,10c-.4,1.18-.52,6.12-.29,11,.36,7.47.65,9,2.14,10,2.29,1.63,3.3.5,2.5-2.81a67.06,67.06,0,0,1-.53-10.88c.07-4.52.11-9.56.08-11.24-.09-4.66.69-9.33,1.72-10.47.51-.59-.34-.69-1.86-.25Zm187.42-51.24c.5-.14,1-.07,1,.17a2.61,2.61,0,0,1-.82,1.33c-.47.49-.92.42-1-.17a1.28,1.28,0,0,1,.85-1.37ZM857,758.89c-2.47.72-2.8,1.35-4.27,8.12-2.76,12.67-3,16.64-1.61,29.4,1.25,11.8,3.45,20.21,5.92,22.58a2.31,2.31,0,0,0,1.86.7c1.43-.41,1.65-3.47.33-4.63-2.27-2-5.55-20.66-5.11-29.07.63-11.65,2.29-21.32,4.1-23.88,2.31-3.24,2-4.17-1.19-3.26Zm75.17-21.7c-.14,0-.34.54-.72,1.55-.58,1.56-.4,3.14.73,5.78,2.47,5.9,4.5,19.93,4,27.86-.25,4-1.47,12.93-2.71,20s-2.28,13-2.26,13.23c.09.83,1.73-.29,2.4-1.65.94-1.87,4.31-16.86,5.71-25.44.79-4.77.73-9.37-.21-17.79-1.52-13.42-2.49-17.61-4.36-18.29-.94-.35-1-.59-.28-.82a1.12,1.12,0,0,0,.47-1.69c-.38-.73-1.06-.94-1.48-.51s-.86,0-1-1-.17-1.31-.3-1.26ZM770.71,787.3c-.18,0-.44.49-.73,1.27-.6,1.6-.47,2.24.51,2.59,1.62.57,2.69-.53,2.48-2.47-.08-.81-.56-1.08-1-.6s-.91.31-1-.4c-.08-.28-.16-.4-.27-.39ZM508.43,863.36a2.2,2.2,0,0,0-.62.23c-2.72,1.39-5.9,9.18-5.8,18.29,0,4.4-.43,6.15-2.69,9.51-3.23,4.77-5.42,13.38-4.23,16.63a3.32,3.32,0,0,0,3.18,2.18h2.29l-.87,5.59A66.94,66.94,0,0,1,498,924c-.81,2.47-.9,2.46-4.5-.94-3.81-3.6-5.71-4.41-7-3s-.65,2.43,4.72,6.66c2.91,2.3,6,3.94,6.91,3.68,1.76-.5,4.17-5.25,3.91-7.66a6,6,0,0,1,.87-3.09,8.58,8.58,0,0,0,1-3.78c-.06-3.69,1.22-7.93,2.5-8.3,1.61-.47,4.46-5.22,4.94-8.27.25-1.52-.65-4-2.54-7a23.65,23.65,0,0,1-2.62-19.14c1.32-4.73,2.69-6.72,2.19-3.18-.83,5.82-.71,8.63.34,8.32,2-.58,3.22-4.43,2.75-9-.5-4.35-1.66-6.06-3-5.86Zm401-115.53c-3,.85-5.92,3.07-5.69,5.18.09.8-.22,1.61-.73,1.76s-.85,1-.76,1.87c.16,1.47.35,1.38,2.08-.65,3.63-4.25,5.75-5.78,6.92-5,.77.55.86,1.5.26,3.26-1.17,3.45.19,6.58,3.11,7.13,1.34.26,2.49.89,2.54,1.41.17,1.54-2.86,2.63-5.48,2-3.36-.83-3.75,1.46-.53,3.19,2.38,1.3,2.39,1.32.27,1.23-2.87-.13-5.72,1.87-5.51,3.83.09.88.37,1.29.6.93s3.93-.87,8.2-1.13c10.7-.63,14.91-1.8,14.27-3.93-.37-1.25-1.89-1.47-6.3-.88-6.27.85-7.09.44-4-2s2.19-6.34-1.32-7.1c-2.8-.6-3.23-2.32-2-7.91a3.15,3.15,0,0,0-1.28-3C913,747.28,911.2,747.31,909.43,747.83Zm-214,66.31a.39.39,0,0,0-.22.11.44.44,0,0,0,0,.32c.06.59-1.43,2.76-3.3,4.79-3.85,4.2-4.42,7.62-.92,5.6,2.13-1.22,2.18-1.16,2.32,4.86.14,5.72.27,6,2.11,5.53s1.91-1.14,1.5-4.88a43.79,43.79,0,0,1,.35-9.57c.73-4.63.65-5.39-.69-6.33A1.62,1.62,0,0,0,695.44,814.14Zm11.37-3.29a17,17,0,0,0-2.25.94c-3,1.54-4.3,2.74-4.39,4.12-.1,1.71.33,1.72,3.61.15,4-1.92,4.72-1.21,3,3.17-.62,1.58-1.91,2.59-4.06,3.22-4.07,1.18-4.61,3.73-.73,3.45,3.24-.23,3.65.82,2.1,5.52a16.28,16.28,0,0,0-.94,4.46c.31,3,3,0,4.44-4.87s1.9-5.45,5-6.63c4.27-1.64,4.56-4.56.33-3.33l-2.81.81,1.12-3.31c2.1-6.57.4-9.36-4.44-7.7Zm165-46a1.47,1.47,0,0,0-.49.19c-.86.44-2.06,2.34-2.71,4.22s-2,5.13-2.94,7.23-1.44,4.25-1,4.78.31.93-.7.8a1.78,1.78,0,0,0-1.91,1.41c-.61,2.67,2.56.92,5.11-2.83l2.39-3.49v6.28c0,3.48.39,7.2.84,8.24.85,1.94,3.89,1.77,4.71-.27.24-.64.1-1.08-.38-.94-.86.25-1.12-2.71-1.6-18.29C873,765.94,872.83,764.64,871.83,764.9ZM575.56,852.8a28.18,28.18,0,0,0-5.31,2.83c-4.61,2.87-4.91,3.44-3.7,6.55.05.15.75-.31,1.58-1a28.28,28.28,0,0,1,3.94-2.74c2.32-1.31,2.38-1.23,1.79,1.78-.42,2.16-1.66,3.87-4.07,5.67-4,3-4.36,5.1-.67,4,2.43-.7,2.54-.53,2.61,3.34.07,3.57.33,4,2,3.49a2.08,2.08,0,0,0,1.73-2.39h0a21.79,21.79,0,0,1,.45-5.16,5.76,5.76,0,0,1,3.66-4.8,10.77,10.77,0,0,0,4-3.3c1-1.84.43-1.93-4.11-.6-1.22.35-1.5-.12-1.28-2.08C578.73,853.59,578.3,851.88,575.56,852.8Zm102-27.65a6.23,6.23,0,0,0-3.16,2.47,6,6,0,0,1-2.12,2.16c-1,.3-1.62,3.93-1.23,7.69a4.35,4.35,0,0,0,2.49,3.62c2.62,1.12,3.62.91,6.92-1.51,3.5-2.55,6.2-6.82,5.93-9.35a8.08,8.08,0,0,0-2.6-4.18A6.36,6.36,0,0,0,677.56,825.15Zm92.3-26.06c-1.89.47-2.67,4.4-2.56,13,.08,6.18.2,6.53,2.08,6,1.59-.46,1.9-1.19,1.65-3.82a59,59,0,0,1,.29-9.21c.59-5.58.51-6-1.1-6a1.45,1.45,0,0,0-.36,0Zm8.73-2.13a2.09,2.09,0,0,0-1.63,2.48.19.19,0,0,1,0,.07,16.33,16.33,0,0,1-.89,5.41c-1.16,3.57-.4,10.73,1.11,10.3.48-.14,1.64-2.06,2.57-4.29,3.82-9.16,3.81-9.16,4.22-4.36.46,5.38,2.3,5.83,4,1s2.36-4.62,2.18,1.07c-.11,3.29.23,5,1,5.3a4.34,4.34,0,0,0,2.23.16c1.42-.4,2.46-3.07,1.22-3.15-.63,0-.83-1.77-.56-5.22s.07-5.45-.64-6c-1.54-1.08-5.12-.63-5,.66.2,1.82-1.29.24-1.87-2-.85-3.27-2-3.45-3.93-.61l-1.83,2.63-.22-2c-.09-1.39-.74-1.88-1.94-1.49ZM610.78,847.58c-.88.28-3.32,4.06-5.44,8.36-4,8.21-4.89,12.51-2.17,10.9,1.39-.82,1.44-.48.71,4.08-1.48,9.28-1.59,12.63-.43,13.45a2.61,2.61,0,0,0,1.62.62c.29-.08,1.09-4.32,1.8-9.44s2.24-13.28,3.45-18.11C612.9,847.26,612.92,846.9,610.78,847.58ZM678.4,828.3c.58-.26,1.16,0,2.19.62,2.6,1.61,2.76,3.26.44,5.9a10.19,10.19,0,0,1-4,2.75c-1.67.48-2.16.08-2.38-2.11s-.06-2.47.75-1.51,1,.82.86-.9a6.11,6.11,0,0,1,1-3.74A3.19,3.19,0,0,1,678.4,828.3ZM888.87,769c-.74.21-1.31,1.4-1.09,3.4.32,3-.21,3.53-6.29,5.27a2,2,0,0,0-1.4,2.35c.18,1.63.71,1.72,3.83.49,3.55-1.41,3.66-1.37,4,1.74a16.84,16.84,0,0,0,1,4.58c1.12,2.16,2,.46,2.17-4.12.12-3.17.62-4.27,1.94-4.65s1.54-1,1-2.35c-.38-1-1-1.76-1.37-1.64s-1.09-1.1-1.57-2.65c-.48-1.89-1.43-2.64-2.18-2.42ZM532.35,874.84c-4.93,1.3-11,7.75-10.48,12.36.13,1.23,2.5-.54,3.27-2.45.94-2.29,6.83-6.83,7.9-6.07s-3.18,12.57-5.31,15.09c-1.73,2.08-.34,3.84,2,2.48,2-1.19,6.37-.65,6.52.81.26,2.41-3.49,5.86-7,6.42-2.68.42-3.52.91-3.4,2,.14,1.29,1.3,1.54,3.14.68.37-.17.7,0,.75.49s1.5.19,3.24-.55c3.5-1.46,7.32-7.19,7-10.44-.23-2.08-4.6-4.25-5.88-2.94s-2.23-1.68-1-3.55c3.7-5.72,5.08-13.46,2.55-14.34A5.31,5.31,0,0,0,532.35,874.84Zm132.12-37.72c-2.65,1-5.42,3-5.3,4.13.16,1.53,4.33.77,8.15-1.52,2.31-1.37,2-3.33-.52-3.13a7,7,0,0,0-1.21.2A11,11,0,0,0,664.47,837.12Zm-40.31,12.71c-1.7.51-5,7-6.07,11.79a42.5,42.5,0,0,1-2.59,8.08c-.91,1.85-1.06,3-.4,3s1,1.41.82,3.7c-.62,9.73,9,10.16,11.63.51l.88-3.28.38,3.12a9.48,9.48,0,0,0,3,5.46c2.42,2.11,2.9,2.15,5.37.44,6.72-4.65,4.86-17.57-2.22-15.52-1.3.37-2.42.18-2.48-.38-.25-2.33,3.49-11.93,5.84-15,1.67-2.2,2.23-3.64,1.64-4.37s-1.31-.65-3,1.17c-2.26,2.45-7.52,13-7,14.15.17.37-.1.79-.59.93s-.58.86-.2,1.6c1,1.91,0,1.85-3.09-.16-1.52-1-3.33-1.57-4-1.37s-1.27.19-1.29,0c-.12-1.15,3.21-9.72,3.84-9.9.43-.12.68-1.11.56-2.2S624.6,849.71,624.16,849.83Zm64.15-16.56c-.72.42-1.67,2.22-2.44,5.09a23.27,23.27,0,0,1-2.14,5.71c-.5.57-.07.81,1,.57s1.33-.08.73.38c-1.38,1-1.19,3,.4,4.12.94.67,1.35.56,1.77-.51a2.27,2.27,0,0,0,0-2c-.29-.35-.08-2.07.47-3.78a33.05,33.05,0,0,0,1.23-6.55c.1-2.5-.34-3.44-1.06-3Zm27.78-6.95c-.51,0-1.34,2.47-1.55,5.23-.17,2.17-.43,4.67-.55,5.56a16.87,16.87,0,0,0,0,3.48c.16,1.42-.06,1.66-1,1-3.89-2.76-11.68,5.61-12.15,13-.15,2.3.19,4.61.81,5.35,1.36,1.65,5.35,1.06,8.72-1.28,2.3-1.59,2.64-1.61,2.83.13a2.41,2.41,0,0,0,1.65,2.17,1,1,0,0,1,1,1,1.16,1.16,0,0,1-.07.37c-.32.78,0,.82,1,.1a10.52,10.52,0,0,1,2.33-1.32c.45-.13,1.85-2,3.11-4l2.31-3.77,2.62,1.35c3.13,1.6,5.17,1.15,5.7-1.21.67-3,.29-3.93-.94-2.32-.85,1.12-1.55,1.12-3,0-1.84-1.48-1.83-1.64.16-4.93,3-4.91,3.92-8.21,2.51-8.71-.63-.22-1.57.48-2.08,1.55s-1.24,1.71-1.6,1.45-.58.16-.49,1a5,5,0,0,1-1.5,3.12c-1.43,1.5-1.77,1.36-2.86-.91-.73-1.54-1.81-2.3-2.64-1.93-2.25,1-2.27,1.65-.35,5.74,1.8,3.82,1.78,3.9-.51,7.93l-2.33,4.07-.7-2.75a19.59,19.59,0,0,1,0-6.83,59.83,59.83,0,0,0,.67-9.17,50,50,0,0,1,.24-6.7c.81-4.38.8-7.54,0-6.67-.49.5-1,.46-1-.16s-.21-.93-.39-.92Zm-172,55.88c-.58.16-.91.66-.81,1.53.08.69,1.42,2.63,3,4.33,2.78,3.08,2.77,3.14,1.22,5.78-2.34,4-6.36,13.47-6.23,14.67.06.59.49,1,1,.82,1.14-.32,2.45-2.43,6.12-9.8,1.68-3.38,3.32-6.2,3.63-6.29s1.62,1.28,3,3.09c2.25,3,5,4.47,6,3,.8-1.22-1.39-5.23-4.14-7.62L554,889.24l1.89-2a7,7,0,0,0,1.82-2.82c-.14-1.27-4.65-.44-5.6,1-.64,1-1.64.62-3.57-1.21C546.79,882.63,545.11,881.94,544.11,882.2Zm43.09-12.49c-1.6.46-1.79,1-1.12,2.82,1,2.61-1,6.38-3.36,6.41-1.92,0-5,4.25-3.44,4.78.61.21,2.29-.24,3.75-1,2.6-1.41,2.68-1.35,3.11,2.34s.51,3.65,1.58,1.49a9.53,9.53,0,0,0,1-4.22c-.17-1.55.25-1.91,2.48-2,3.53-.18,4.61-3.33,1.12-3.25-2,0-2.35-.56-2.71-3.91S588.86,869.24,587.2,869.71Zm-86.81,26.34c.06,0,.14-.09.18,0,.28.19.47,2.52.42,5.16-.08,4.39-1.55,6.67-3.06,4.83-.6-.78,1.61-9.33,2.47-10ZM914.46,776.58a5.8,5.8,0,0,0-.8.37c-3.34,1.92-6.44,8.43-6,12.66.14,1.34.61,2.56,1,2.7,1,.34,3.83-3,3.06-3.58-.31-.22,0-2.11.7-4.19l1.28-3.77,1.19,3.26a35.22,35.22,0,0,0,2.43,5.07c1.11,1.76,1.32,1.76,3.15-.21,1.08-1.16,2.41-2,3-1.76a4.17,4.17,0,0,0,2.85-.83c1.39-.91,1.57-1.46.67-2.24s-.87-1.28-.25-1.91c1.35-1.39.92-2.55-1-2.71-.92-.09-1.84-.23-2.75-.41-.62-.12-1.68.69-2.39,1.79-1.17,1.83-1.39,1.77-2.22-.6-1.09-3.24-2.16-4.28-3.91-3.63ZM505,895.66c.17-.12.55.28,1.3,1a6.27,6.27,0,0,1,1.63,2.22,12.22,12.22,0,0,1-1.6,3.55l-1.62,2.92.29-2.57a34.05,34.05,0,0,0,0-5.15C504.92,896.41,504.88,895.77,505,895.66Zm157-43.1a5.62,5.62,0,0,0-.78.38c-1.82.92-4.94,5.67-4.82,7.33,0,.46-1.82,0-4.12-1.1-4-1.86-7.61-1.94-7.42-.14.05.46,2.07,2,4.48,3.53s4.35,3.22,4.35,3.78c0,2.38-1,5.91-1.76,6.15-1.29.37-.74,3,.66,3.2.66.09,1.25.19,1.31.21.7.35,4-6.14,3.64-7.13-.31-.83.11-.75,1.12.17a6,6,0,0,1,1.76,2.28c0,.44.91.59,1.92.29,2.13-.61,2.16-3.85.06-5.35-2.58-1.85-2.81-3.86-1-8,2-4.54,2.17-6.11.58-5.62ZM622.6,867.7c1.26-.43,1.49.17,1.79,2.93a20.09,20.09,0,0,1-.68,6.94c-2.09,6.4-4.62,4-4.09-3.81.27-3.88.75-5,2.37-5.77Zm87.6-22.37c2.42-.7,3.63,1.2,1.89,3a3.93,3.93,0,0,0-.68,2.7,6.21,6.21,0,0,1-1.26,3.7c-2.26,3-4.28,4.14-5.6,3-2.59-2.3,1.45-11.15,5.65-12.37Zm44.28-12.82c-.74.21-1.48,1.46-1.62,2.76-.38,3.39.21,13.13.93,15,.84,2.27,3.09,1.34,3.83-1.62a30.07,30.07,0,0,1,2.2-5.47l1.61-3,.34,3.19a18.28,18.28,0,0,1-1.12,7c-.83,2.15-1.17,4.6-.76,5.4.86,1.65.87,1.63,2.74.25a3.18,3.18,0,0,0,1.19-2.64,35.3,35.3,0,0,1,.77-6.4c.93-4.68.13-9.76-1.66-10.39-.49-.17-2.06.76-3.5,2.05l-2.64,2.37-.48-4.5c-.36-3.25-.82-4.3-1.83-4Zm-142.31,42.6a2.33,2.33,0,0,0-.82.44c-1.14.84-4,13-3.74,15.6.34,3,2.16.12,4.21-6.51,1.91-6.07,2-9.83.37-9.49Zm22.05-4.34c2.82-1.23,5,3.94,2.77,7.43-1.53,2.36-1.41,2.33-2.94,1.25-1.91-1.35-2.18-7-.4-8.37a3.15,3.15,0,0,1,.59-.27ZM805.8,821.93c-1.08.43-2,2.19-2.74,5.28-.63,2.54-1.38,3.6-2.38,3.48s-1.22.27-.69,1.31a1.87,1.87,0,0,0,1.92,1.09c.64-.19,1.6,1.16,2.15,3,1.17,3.95,3.07,3.32,3.29-1.11.1-2.15.64-3.16,1.95-3.55,2.54-.74,2-3.57-.57-3.22-2.24.3-3.11-2.18-1.59-4.53.63-1,.58-1.48-.19-1.75a1.63,1.63,0,0,0-1.13,0Zm14.44-3.28a5.42,5.42,0,0,0-3.41,2.48c-2.2,3.41-2.15,7.1.19,9.42,1.79,1.78,2.84,1.92,6.62.83,2.46-.72,5.37-1,6.45-.63,3.54,1.22,11-2.19,12.39-5.68,2.59-6.29-7.32-11.55-12.18-6.44-.79.83-2.41.93-4.7.31a10.74,10.74,0,0,0-5.34-.25ZM782,830.27a1.35,1.35,0,0,0-1,1.18c-.18.85.86,2.09,2.38,2.81l2.66,1.27-6.62,2.12c-8.41,2.63-8.47,2.62-8.41,3.83.08,1.59,3.9,1.13,10.34-1.25l5.92-2.16L785,841.71a16.66,16.66,0,0,0-2.1,4.3c.11,1,1.77.39,3.91-1.54,2.57-2.3,7.22-9.29,7-10.57-.2-1.48-4.43-3.26-8.8-3.63a10.13,10.13,0,0,0-3.06,0Zm38.14-8.5a3.76,3.76,0,0,1,2.3,0c3.1.6,4.28,2.56,3,5-1.57,2.92-7.35,3.33-6.19.44.25-.65,0-1.19-.56-1.23s-.58-.93.11-2.37a3.58,3.58,0,0,1,1.35-1.81ZM833.81,820c.77-.38,1.45.1,3,1.32l2.61,2-2.15,3.06c-1.17,1.7-2.14,2.72-2.19,2.29s-1.19-1-2.51-1.22c-3.11-.6-3.3-2.8-.54-5.78a8.25,8.25,0,0,1,1.8-1.64Z" transform="translate(-184.13 -132.97)"></path><circle class="cls-2" cx="149.07" cy="360.92" r="63.38"></circle><g id="g63276" class="cls-3"><path id="path3570" class="cls-4" d="M1032.32,428.35c-.68-1.14-.75-5.75-.37-27.81.29-17.43.24-18-1.67-18.19-1-.07-4.39-.27-7.36-.43s-5.54-.79-5.74-1.38-1.44-1.08-2.77-1.08a19.11,19.11,0,0,1-6.5-2.08,20.81,20.81,0,0,0-5.38-2.07,7.67,7.67,0,0,1-3-.93c-.95-.52-3.48-1.72-5.65-2.69s-4.3-2.37-4.72-3.11a2.9,2.9,0,0,0-2.22-1.37,1.54,1.54,0,0,1-1.43-1.59c0-.86-1.32-2.07-3-2.64s-2.95-1.47-2.95-2-.6-.91-1.32-.91-2.61-1.14-4.14-2.54-3.42-2.53-4.1-2.54a1.12,1.12,0,0,1-1.23-.95c0-.51-.77-1.2-1.72-1.51-2.65-.88-13-11.64-17.76-18.4-7.89-11.31-8.49-12.52-13.77-27.67a70,70,0,0,0-3.9-9.65c-1.41-1.82-2.5-5.91-2.41-9.05.06-2.07-.55-2.95-2.67-3.72-1.51-.53-3.25-.66-3.87-.25-1.23.77-14.43.54-27.68-.49-15.22-1.19-18.37-2-16.64-4.14.84-1,2.93-1.24,8.63-.79,4.14.33,15,.66,24.19.75l16.67.14,1.62-9.14a169.61,169.61,0,0,1,10.87-37.59,21,21,0,0,0,1.37-4.07,5.57,5.57,0,0,1,.65-2.07,20.37,20.37,0,0,0,1.22-3.81c.35-1.54,1-2.79,1.61-2.79s1-.73,1-1.62a9.43,9.43,0,0,1,2-4.21,9.48,9.48,0,0,0,2-4c0-.77.45-1.39,1-1.39,2.19,0,.76-4-2.47-7a18.44,18.44,0,0,1-3.44-3.67c0-.9-9.16-14.22-10-14.6-1.51-.64-11.83-11.91-22.31-24.39a5.88,5.88,0,0,0-3.36-2.19c-2.07,0-4.75-5.56-3.34-7,1.77-1.82,3.32-1.26,6.11,2.21,2.26,2.8,11.07,12.54,30.47,33.66,2.16,2.36,6.08,6.83,8.69,9.94l4.74,5.64,6.56-6.95c3.62-3.84,7.08-7,7.69-7s1.34-.91,1.62-2.07c.46-1.8,3.88-3.9,7.25-4.49a8.32,8.32,0,0,0,3-1.74c2.48-2.14,6.86-3.95,9.56-3.95a18.08,18.08,0,0,0,5.61-1.41c4.26-1.8,16.57-4,23.49-4.14,3-.09,7-.23,8.85-.32l3.45-.18.1-9.2c.11-9,1-12.07,3.32-10.62.76.49,1,3.78.83,10l-.31,9.32,7.32.08c4.7,0,7.45.49,7.7,1.27s1.45,1.2,2.74,1.2c2.08,0,5.7,1.15,12.73,4.05,1,.43,6.21,2.07,11.32,3.54,10.77,3.11,13.64,4.39,15.85,6.88,1.49,1.67,1.67,1.49,2.8-3a68.51,68.51,0,0,1,2.07-6.86,36.07,36.07,0,0,0,1.48-5.41,27.13,27.13,0,0,1,1.91-5.88c1.16-2.33,1.38-2.39,2.85-.88a5.6,5.6,0,0,1,1.6,3,8.3,8.3,0,0,0,1.81,3.66l1.81,2.32,1.85-3.22c1-1.77,2.18-3.22,2.61-3.22s.77-.64.77-1.4c0-1.59,2.73-4.26,3.51-3.44.28.29.65,4.14.84,8.52s.64,9.88,1,12.17c.57,3.28.4,4.3-.79,4.76-2.23.89-3.37-1.27-3.24-6.14.06-2.37-.22-4.32-.62-4.32s-.76-.79-.78-1.77-.84-.23-2,2.07c-2.19,4.3-4.39,4.92-5.39,1.53a13.3,13.3,0,0,0-2.21-4.09c-1.85-2.18-3.11-.74-3.11,3.58,0,1.53-.4,2.8-.87,2.8s-1.13,1.82-1.49,4.05c-.43,2.81-1.11,4.07-2.22,4.07s-.72.71,1.24,2.25a23.55,23.55,0,0,1,3.54,3.3,1.61,1.61,0,0,0,1.47.84c1-.3,5.18,3.51,5.18,4.78s3.63,5.09,4.92,5.09a1,1,0,0,1,1,1,.57.57,0,0,1,0,.13c0,.64,1,.07,2.36-1.27s3-2.94,3.7-3.57a41.78,41.78,0,0,0,3-3.11c.93-1,2.15-2.36,2.74-2.92s3.29-3.94,6-7.51c5.76-7.56,22.31-24.5,23.9-24.48a5.94,5.94,0,0,1,2.51.94c1.13.74.55,1.72-2.86,4.82-7.93,7.25-16.09,15.53-17.66,18-2.23,3.49-16.46,18.9-17.46,18.9-.46,0-1.39.92-2.07,2.08a3.16,3.16,0,0,0,0,4.07c.67,1.1,1.56,2.07,2,2.07s.75.61.75,1.36,1.31,2.43,2.93,3.7a22.25,22.25,0,0,1,5.07,7.25c1.18,2.7,2.5,4.68,2.92,4.41,1.23-.78,3.11,3.6,2.61,6.14-.3,1.62,0,2.25,1.14,2.17s1.67.92,1.9,2.94a10.28,10.28,0,0,0,1.26,4.22c.62.77.51,1.34-.33,1.67s-.57,1,1,2.23c1.31,1,2.08,2.38,1.74,3.21a5.29,5.29,0,0,0,.93,3.78c.8,1.28,1.18,2.61.82,3s-.11,1.3.53,2.07a3.73,3.73,0,0,1,1,2.31,11.28,11.28,0,0,0,.51,3.5,72,72,0,0,1,.9,11.17l.18,8.54,2.95.16,13.77.81c6,.36,16.93.8,24.39,1s13.81.59,14.13.92a2.29,2.29,0,0,1,.06,2.07c-.43,1.15-2.89,1.36-12.67,1-14-.44-28.86-1.14-28.86-1.38a5.41,5.41,0,0,0-1.72-.5c-.94-.18-1.72.13-1.72.7s-.75.72-1.71.32a29.08,29.08,0,0,0-5.91-1.19c-4.27-.5-4.81.07-4.25,4.48.08.69-.26,1.27-.77,1.27-1.36,0-3.3,5.91-3.34,10.16a6,6,0,0,1-1.23,3.05,31.54,31.54,0,0,0-3,6.34c-1,2.67-2.07,4.83-2.59,4.83s-.84.52-.84,1.14c0,2-8.76,15.53-13.22,20.47-2.35,2.6-4,5-3.72,5.27s-.16.56-1,.56-2,1.33-2.54,2.95a6.21,6.21,0,0,1-3,3.63c-1.13.36-2.07,1.09-2.07,1.61a1,1,0,0,1-1,.95c-.59,0-2.54,1.48-4.31,3.31-5.64,5.76-8,7.5-9.32,7-.73-.25-1,0-.71.57s-.74,1.3-2.4,1.64a17.89,17.89,0,0,0-5.79,2.68,11.45,11.45,0,0,1-5.62,2.07,6.53,6.53,0,0,0-3.95,1.12c-1.3,1.35-13.46,5.65-20.08,7.12-2.64.59-4.8,1.54-4.8,2.13,0,1.47-7.84.46-11.67-1.52-1.89-1-3.3-1.2-3.66-.59s-.28,4.06.12,7.8.65,7.48.59,8.28-.16,7-.2,13.71a130.31,130.31,0,0,1-.57,14C1035.51,429.33,1033.21,429.87,1032.32,428.35Zm24.67-49a2.58,2.58,0,0,1,2-.71c1.15.34,11.71-3,16.82-5.38a26,26,0,0,1,5-1.91c1.24,0,12.6-6.09,17.71-9.5,2.36-1.57,4.51-3.75,4.78-4.81s1-1.95,1.73-1.95c1.44,0,7.17-6.36,19.68-21.85,5.79-7.17,7.38-9.9,7.38-12.67,0-1.13.36-2.08.8-2.08,1.2,0,5.18-9.86,6.74-16.76.75-3.36,1.63-7.09,1.94-8.28.52-2.08.22-2.22-5.69-2.28-22.14-.25-22.48-.28-22.48-2.18,0-1.66,1-1.78,13.68-1.42,10.52.3,13.93.08,14.76-.95,1-1.35-.16-19.91-1.5-22.13-.53-.91-3.22-12.56-3.68-16.08a37.39,37.39,0,0,0-2.4-6.29,34.07,34.07,0,0,1-2.17-5.61,10,10,0,0,0-2.22-3.35c-2.8-3.2-7.62-10.82-7.62-12s-5.17-7.25-6.21-7.25c-.49,0-2.53,1.48-4.54,3.3-10.71,9.71-15.13,13.54-16.56,14.39a23.54,23.54,0,0,0-3.76,3.05c-1.17,1.16-4.83,4.63-8.12,7.7s-10.77,10.36-16.57,16.26-14.19,14.12-18.55,18.34-8.69,9.15-9.59,10.95c-1.73,3.45-1.84,7.09-1.43,50,.09,9.22,0,21.79-.11,28-.35,14.38-.53,13.51,3.17,14.59s15.35.38,17-1Zm13.64-105.44c-.67-1.13.36-4.15,1.42-4.15.42,0,1-.87,1.25-1.93.36-1.42-.39-2.43-2.83-3.78-3.65-2.07-4.14-3.5-1.82-5.48,1.24-1,1.88-.92,3.74.89,2.79,2.7,3.8,2.72,6.06.15,1-1.12,1.38-2.08.89-2.08s.37-.68,1.93-1.52c3.53-1.89,3.58-1.89,3.55.26,0,1-1.26,3.33-2.79,5.18l-2.75,3.44,2.41,2.48c1.81,1.88,2.14,2.78,1.29,3.66s-1.63.85-3.11-.12c-2.16-1.39-3.86-.84-3.86,1.29S1071.72,275.68,1070.63,273.89Zm-38.15,96.42c.6-19.95,0-80.85-.83-81.69-.61-.64-21.11-1.73-39.35-2.07-8.42-.18-17.72-.8-20.71-1.4a57.45,57.45,0,0,0-9.78-1c-2.43,0-9.87-.17-16.57-.41l-12.08-.43.47,3.05c.25,1.68.88,3.34,1.38,3.67s1.26,3.1,1.66,6.21a32.4,32.4,0,0,0,1.32,6.61,10.1,10.1,0,0,1,.88,2.86c.31,2.07,3.74,10.54,5.17,12.89.53.84,1.49,2.67,2.16,4.07a80.28,80.28,0,0,0,10.91,15.23c1.43,1.4,2.6,3.19,2.61,4s.29,1.16.62.81,1.62.39,2.87,1.61c5.18,5,8.28,7.66,11.17,9.43,1.69,1,3.11,2.23,3.11,2.67s.56.8,1.25.8,3.46,1.48,6.15,3.3,7,4.45,9.57,5.85,4.67,3,4.67,3.64,3.21,2.16,7.14,3.46,8,2.71,9.1,3.16c3.34,1.39,10.67,2.77,13.77,2.6l2.95-.17ZM1025.82,284c1.26-.84,1.23-1-.24-1-.95,0-1.73-.42-1.73-.91,0-.93-11.26-13.52-18.57-20.76-7.08-7-11.34-11.39-13-13.46a46.36,46.36,0,0,0-4.44-4.31c-6.48-5.53-15.89-15.53-26.4-28-2.16-2.56-4.26-4.67-4.66-4.67-1.69,0-4.69,3.67-4.69,5.74,0,1.22-.36,2.38-.79,2.57-1.38.59-9,17.33-9,19.75a4,4,0,0,1-.93,2.9c-.51.33-1.23,2.75-1.62,5.38a42.06,42.06,0,0,1-2.07,8.12c-.73,1.83-1.58,6.86-1.87,11.19s-1,8.29-1.46,8.83a4.58,4.58,0,0,0-.92,2.79c0,1.32.75,1.82,2.71,1.82,11.33,0,35.8,1.17,38.6,1.85,1.9.45,9,.72,15.74.61a137.78,137.78,0,0,1,17,.55c2.59.41,4.93.38,5.18-.07s1.63-.38,3,.16,2.82.79,3.21.54a2.48,2.48,0,0,1,2.13.48,3.86,3.86,0,0,0,4.92-.11Zm6.38-19.76c0-9.19-.37-17-.75-17.43a1.5,1.5,0,0,1,.22-1.84c1.26-1.56,1.4-18.53.18-23.44a31.33,31.33,0,0,1-.57-8.64c.5-5.17,1.43-22,1.72-31l.21-6.1-10.14-.23a82.47,82.47,0,0,0-17.11,1.3c-3.85.83-7.2,1.29-7.46,1s-1.41,0-2.56.71a12.77,12.77,0,0,1-2.58,1.24c-1.37.11-13,6.34-17.6,9.47-5.55,3.73-15.83,13.81-15.83,15.54,0,1,3.81,5.61,12.29,14.82,2.71,2.94,6.69,7.65,8.84,10.46s4.26,5.18,4.67,5.18.76.7.76,1.52.38,1.54.86,1.54c1.3,0,40.45,40.15,40.45,41.5,0,.64,1,1.17,2.23,1.17C1032.24,280.91,1032.24,280.88,1032.2,264.19Zm8.38,13.13a1.44,1.44,0,0,1,1.33-1.49c1.68,0,4.8-3.5,3.92-4.4-.36-.37.23-.67,1.32-.67s3.1-1.26,4.45-2.8,4.2-4.46,6.32-6.49,5.41-5.46,7.37-7.62c5.18-5.69,10.5-10.53,11.67-10.53a1,1,0,0,0,1-1c0-.59,1.66-2.65,3.69-4.59,3.81-3.64,4.3-4.06,17.46-15.33a104.85,104.85,0,0,0,8.6-7.86c.39-.61.72-.78.73-.36,0,1.31,4-3.23,4-4.58s-3.11-5-6.53-7.87c-1-.84-3.88-3.24-6.37-5.33s-5.17-3.81-6.06-3.81a2.09,2.09,0,0,1-1.87-.8c-.43-1-15.94-10.36-17.28-10.36a24.42,24.42,0,0,1-5.35-2.11,21.68,21.68,0,0,0-7-2.07c-1.49,0-2.72-.44-2.72-1,0-1-8.44-2.33-16.66-2.5l-5.46-.11.2,7.62c.53,19.67.44,40.87-.2,48.26-.4,4.47-.63,14.76-.5,22.86s.23,17.81.23,21.57c0,6.38.12,6.76,1.85,5.8a3.46,3.46,0,0,0,1.87-2.43Z" transform="translate(-184.13 -132.97)"></path><path id="path3572" class="cls-4" d="M927.81,283.87c-.55-.91-1-60.27-.61-88.9.22-19.06.69-21.55,4-21.55h2.38l-.16,13.72c-.36,29-.33,54.62.08,61,1.24,18.9,1.35,33.47.25,34.37C931.88,284,928.39,284.84,927.81,283.87ZM887.6,257.16a4.36,4.36,0,0,1-1.72-3.43c0-1.89.41-2.28,2-1.86,1,.29,1.7.92,1.41,1.41s.1.64.86.34c1.72-.67,3.3-4,4-8.33.52-3.11.43-3.27-1.52-2.19-1.32.73-2.3.79-2.69.17a6.17,6.17,0,0,0-2.82-1.7c-2.18-.71-3.27-3.21-3.55-8.18-.21-3.77-2.28-3.11-3,1-.51,2.78-.21,4,1.4,5.62,2.08,2.14,1.89,4.06-.37,4.06-.67,0-2.41-1.27-3.86-2.84-2.27-2.43-2.51-3.28-1.75-6s.59-3.23-1-3.67c-2.85-.76-2.23-3.41,1-4.6,1.61-.58,2.95-1.59,2.95-2.23a17.16,17.16,0,0,1,1.37-4.38c.75-1.76,1.58-3.89,1.85-4.74.57-1.83,5.63-2.54,5.63-.8a7.24,7.24,0,0,1-1.91,3.3,14.62,14.62,0,0,0-2.59,6.42c-.6,3.86-.47,4.31,1.3,4.31a4.69,4.69,0,0,0,3.2-1.52c2.17-2.7,6.78-1.86,10.43,1.92,3.2,3.32,4.38,7.18,2.4,7.89-1,.36-4,11.09-4,14.18,0,1.61-5.18,7-6.72,7a8.15,8.15,0,0,1-2.3-1.06Zm6.56-18.85c1-.39,1.56-1.85,1.56-4,0-2.82-.48-3.51-3-4.42-3.48-1.25-4-.55-3.45,4.94.18,1.95.39,3.67.44,3.81C889.91,239.19,892.6,239,894.16,238.31Zm11.39,9.74c0-1.13,1.15-3.94,2.56-6.21l2.57-4.2-2.13-4.41c-1.18-2.43-1.87-4.88-1.53-5.44,1-1.82,3.11-1.1,4.26,1.52,1.26,2.87,2.64,3.27,3.48,1,.65-1.76,4.14-2.07,5.1-.43.36.6-.35,2.19-1.57,3.54l-2.23,2.44,2.61,2.07c2.79,2.26,3.36,4.44,1.48,5.64-.65.41-1.94-.29-3-1.65l-1.86-2.37-2.41,2.67c-1.32,1.48-2.4,3.11-2.4,3.67,0,1.26-2.8,4.14-4,4.14-.47.08-.91-.84-.91-2Z" transform="translate(-184.13 -132.97)"></path><path id="path3574" class="cls-4" d="M976.58,176.86c-.14-.14-10.71-.3-23.48-.35-20.23-.1-23.4-.32-24.66-1.78s-1.19-1.87.92-3.5c1.3-1,2.38-1.46,2.38-1s5,.68,11.06.53c11.28-.29,16.39-.34,31.24-.31,9.66,0,39.27-.77,47.22-1.27,3-.18,7.09-.41,9.15-.5s3.5-.59,3.11-1.19c-.86-1.44.78-1.27,2.86.31a4,4,0,0,1,1.42,3.79c-.28,2-1.09,2.59-4.51,3.19a44.29,44.29,0,0,1-8.61.45c-3.05-.17-4.43.14-4.43,1s-4.84,1.23-21.75,1C986.6,177.21,976.71,177,976.58,176.86Zm5.08-10.09c-1-.29-1.72-1.45-1.72-3,0-2.12.35-2.42,2.07-1.85,3.66,1.2,4-1.64.55-4.75-2.89-2.59-3-3-2-5.91s1-3.11-1.22-3.11c-2.61,0-4,2.08-4.5,6.61-.25,2.2,0,3,1,2.74,1.89-.43,3.1,2,1.87,3.57a3.74,3.74,0,0,1-5.77-.26c-1.39-1.73-1.87-7.49-.7-8.29s.8-3.64-.89-4.91c-2.15-1.62-1-4.94,1.39-4.15,1.37.45,2.15-.54,3.7-4.68,2.48-6.62,4.84-7.88,4.2-2.22a27.12,27.12,0,0,1-1.18,5.63c-.55,1.27-.16,1.78,1.56,2.07,1.26.2,2.17.92,2.07,1.61-.33,1.68,1.22,1.58,2.63-.18s6.63,0,8.64,3.11c1.23,1.92,1.21,2.6-.13,5.27a12.6,12.6,0,0,1-2.52,3.69,4,4,0,0,0-1,2.93,7.68,7.68,0,0,1-2.28,4.52c-2.26,2.28-2.69,2.39-5.8,1.56Zm7.14-15.12c0-2.84-2.07-3.28-4-.83-1.11,1.38-1,1.84.52,3,2.31,1.74,3.54,1,3.54-2.18Zm8.85,8.14a14.07,14.07,0,0,1,1.49-4.55c1.44-2.88,1.39-3.11-1.47-6.22-3.36-3.64-3.64-4.74-1.41-5.63,1-.37,2.53.38,4,1.93l2.47,2.54,2.38-2.45c1.3-1.36,2.77-2.2,3.27-1.88s1.11,0,1.39-.72.53-.21.57,1.11a9.52,9.52,0,0,1-1.89,5l-2,2.58,2.08,3.45c1.13,1.89,1.81,4.14,1.51,5-.71,1.89-3.58,2-3.58.09a4.2,4.2,0,0,0-1.44-2.64c-1.21-1-1.66-.78-2.62,1.4-1.28,2.88-4.8,3.66-4.8,1.08ZM944,159.61a6.81,6.81,0,0,1-5.4-7c0-1.87.35-3.4.78-3.4s1.56-1.76,2.47-3.91c1.53-3.59,2-3.91,5.35-3.81s3.72.42,4,2.89c.3,2.73-1,3.81-2.28,1.79s-3-.9-4.72,3.1c-1.34,3.17-1.48,4.5-.63,5.56s1.56,1.16,4-.13c1.58-.84,2.86-2,2.86-2.51s.66-1,1.47-1,1.48-.95,1.49-2.29a8,8,0,0,1,2.39-4.6c2-1.94,3-2.19,6.41-1.64,2.48.41,4.44,1.41,5,2.58,1.38,2.64.22,7.92-2.5,11.39-2.27,2.9-4.05,3.28-11.84,2.48a16.9,16.9,0,0,0-4.43.35A11.59,11.59,0,0,1,944,159.61Zm18.44-6.46c2.08-2.16,2.2-4.08.55-5.79-2.56-2.64-4.44-1.36-5.41,3.73-.9,4.71-.85,4.9,1.11,4.42a9.37,9.37,0,0,0,3.75-2.37Z" transform="translate(-184.13 -132.97)"></path><path id="path3576" class="cls-4" d="M1094.12,318.51c0-.91,1.33-3.22,3-5.18l3-3.5-2-2.89a11.71,11.71,0,0,1-2-4c0-1.92,3.75-1.21,5.26,1,1.36,2,1.56,2.07,3.9.44s2.51-1.56,3.11.5a2.84,2.84,0,0,1-1,3.48c-1.65,1.25-1.62,1.51.41,5.06,2.61,4.58,2.61,4.65.2,4.65a4,4,0,0,1-3.1-2.29c-.65-1.25-1.27-2.41-1.39-2.56s-1.79,1.32-3.7,3.3C1096,320.45,1094.11,321.09,1094.12,318.51Zm-29.44-3.77c-.59-.61-2.74-1-4.78-.84-3.39.25-4-.1-6.39-3.94-3.48-5.49-3.37-7.71.52-11.22,2.38-2.15,3.83-2.74,5.66-2.28,3.67.9,4.14,1.38,2.89,2.94-.63.78-1.58,1.15-2.07.82s-2,.42-3.3,1.68c-2,1.93-2.17,2.6-1.19,4.42a11.49,11.49,0,0,1,1.19,2.82c.14,2.61,5.45.73,5.45-1.93a1.33,1.33,0,0,1,1.37-1.29h0c.74,0,1.3-.79,1.23-1.78s1.24-2.47,3.63-3.67c3.29-1.66,4.15-1.73,6.27-.53a8.3,8.3,0,0,1,3.29,3.43c.75,1.89.81,1.9.87.13a6.69,6.69,0,0,1,2.19-3.81c2.34-2.07,2.4-2.07,5.43-1.27,2.6.72,2,3.43-.81,3.43-3,0-3.17,2.61-.43,6.78,3,4.53,3.17,6.11.82,6.84C1083.31,316.47,1065.78,315.88,1064.68,314.74Zm9.51-6.13a6.12,6.12,0,0,0,.51-3.45c-.55-1.65-5.81-1.65-6.83,0-1.13,1.82-1.12,6.21,0,7,1.48,1,5.26-1.13,6.32-3.57Zm6.89,3.1c1.59.59,1.55.14-.24-3.4-1.13-2.24-1.47-2.47-1.47-1a7.43,7.43,0,0,1-1.73,4c-1.65,1.92-1.64,2,.25,1a4.92,4.92,0,0,1,3.19-.55ZM1072.19,290c-.24-.25-8.92-.58-19.28-.75-20.51-.32-22.1-.73-19.79-5.18,1-2.07,2.07-2.55,5-2.55,2.07,0,3.91.34,4.14.76s13.67.67,29.81.55c41.42-.29,43.06-.27,43.86.55.38.4.36,2.07,0,3.67l-.77,3-21.27.24c-11.72.18-21.5.08-21.73-.13Z" transform="translate(-184.13 -132.97)"></path><path id="path3579" class="cls-4" d="M1110.56,290c-.27-.45-.55-5.59-.62-11.39s-.15-11.54-.2-12.66.27-8.43.68-16.25.68-15.25.63-16.49a74,74,0,0,1,1.37-10.16,89.57,89.57,0,0,0,1.46-10.68c0-3,2.5-3.88,4.72-1.58,1.29,1.33,1.63,5.89.44,5.89-.4,0-.81,2.62-.92,5.84-1.16,36.38-1.44,45.76-1.39,47.5v5.58c0,1.95-.11,5.85-.16,8.64s-.56,5.43-1.14,5.83C1114,291,1111.16,291,1110.56,290Zm70.22-39.16c0-.74,1.21-2.56,2.7-4,6.39-6.34,6.33-6.22,4.69-9.45a14,14,0,0,1-1.49-4.72c0-1-.52-1.78-1.15-1.78s-.91-.25-.61-.56c1.42-1.46,5.39.92,6.47,3.87l1.16,3.19,2.07-2.23c4-4.42,6.58-2,3,2.78-1.67,2.24-1.7,2.71-.39,4.79.81,1.26,1.17,2.77.83,3.36-.82,1.35-3.47,1.39-3.47,0,0-2-3-1-7.44,2.54-4.91,3.87-6.38,4.38-6.38,2.24Zm-5-3.22c-.38-2.41-.11-7.49.47-8.47a5,5,0,0,0,0-3.38c-.59-1.92-1-1.51-3.1,3.1-1.73,3.75-3,5.25-4.39,5.25-1.79,0-1.91-.42-1.26-4.31.4-2.39.82-5.86,1-7.74.29-4.53,4.4-7.54,4.4-3.21,0,1.66.48,1.91,2.77,1.43,2.5-.52,2.92-.18,4.28,3.41,1.72,4.5,1.31,10.07-.92,12.71-1.39,1.65-3,2.28-3.2,1.25Zm-30.58-2.67c-2.94-1.12-4.35-3.74-2.85-5.3.68-.69,1.77-.6,3.39.29,4.07,2.25,4.68.94,2.07-4.5a30.44,30.44,0,0,1-2.44-6.38c-.07-2.58,11.48-5.42,12.84-3.11a4.23,4.23,0,0,0,3,1.39c1.27.1,2.31.67,2.31,1.27a2.78,2.78,0,0,0,.6,1.73c.33.34.23,2.73-.24,5.28s-.62,5-.35,5.47c.77,1.27-.58,4-2,4-1.59,0-2.26-3.22-2-9.47.19-3.67-.07-4.76-1-4.38a1.44,1.44,0,0,1-1.82-.94h0c-.6-1.61-3.33-1.9-5.37-.57-1,.72-1,1.68.23,5.56a43.46,43.46,0,0,0,2.75,6.7c.67,1.1,1,2.19.76,2.41C1154,245.45,1147.54,245.8,1145.19,244.92Zm15.61-25.26c-.56-2.25,1.62-2.77,4.22-1,1.31.89,1.31,1.12,0,2-2.23,1.58-3.65,1.25-4.2-1Z" transform="translate(-184.13 -132.97)"></path></g><path id="path3560" class="cls-1" d="M1225.18,768.88c-3.71-.52-8.33,1.36-9.6,4.8-.52,1.38-1.43,2.4-2,2.3-2-.36-2.92,4.79-1.43,7.9,1.18,2.46,1,4-.64,7.57-1.53,3.23-1.78,5.08-.94,6.89.94,2.07,2.3,2.64,8.28,3.46,6.52.89,7.34.72,9.87-1.76s2.67-2.78.71-5.81a8.88,8.88,0,0,0-4.74-3.64c-3.27-.6-3.11-.87,1.53-3.79,5.69-3.64,7-10,3-15.54A5.9,5.9,0,0,0,1225.18,768.88Zm-1.4,4.74c4.92,1.13,4.34,9.13-1.41,11.29-4,1.5-3.56,1.57-5.78-1-1.47-1.74-1.47-2.85,0-5.77,2.18-4.2,2.84-4.74,6.1-4.62a6.36,6.36,0,0,1,1.07.1ZM1121.56,762a12.07,12.07,0,0,0-1.8-.1c-4.52,0-10,2.84-10.14,5.31,0,.95-1.55,6.3-3.31,11.78s-2.84,10.69-2.52,11.59c1.15,2.84,8.65,1.76,14.28-2.11,5.82-4,7.81-8.09,5.87-12.09-.94-2-.83-3.93.5-6.85C1126.41,765.14,1125.38,762.56,1121.56,762Zm42.18,8.38a11.84,11.84,0,0,0-6.31,1.13c-4.4,2-10.59,8.15-11.93,11.76-1.49,4-.8,10.42,1.52,13.6,1.72,2.36,3.2,3,7.94,3.45,6.21.61,11.06-1.19,12.31-4.53,1-2.49.26-2.54-4.08-.52-3.46,1.6-9.14,1.29-12.1-.65-.81-.54-1.69-2.56-1.95-4.47-1-7.58,8.6-17.86,15.15-16.28,5,1.22,5.69,1.07,4.06-1A6.76,6.76,0,0,0,1163.74,770.37Zm-46.12-5.07c3,.54,4,3.72,1.75,5.32a9.88,9.88,0,0,1-4.14,1.42c-2,.13-2.08-.37-1-3.46C1115.34,765.71,1116,765,1117.62,765.3Zm22.57,4.46a4.56,4.56,0,0,0-1.9.26c-1.22.38-1.75,1-1.27,1.48s.12,2-.72,3.43c-1.2,2.06-2.13,2.49-4.59,2.05-3.79-.7-4.67,1-1.67,3.31a3.49,3.49,0,0,1,1.34,4,5.38,5.38,0,0,0,0,3.79c.46.85,1.06,1.18,1.33.74s1.27-2,2.2-3.54c1.35-2.17,2.43-2.72,5.21-2.5,2.33.19,3.87-.29,4.5-1.5.53-1,.42-1.64-.19-1.42a1,1,0,0,1-1.27-.63.58.58,0,0,1,0-.18c-.15-.63-1.09-.94-2.09-.82-1.37.24-1.46-.57-.39-3.45,1.18-3.16,1-4.84-.45-5.07Zm-43.36-5.85c-1.07-.23-1.66.59-2.69,3.34-1.11,3-2,4-3.78,4.08-3,.21-4.12,3-1.47,3.52,1.08.19,2.15,1.66,2.39,3.27.62,4,2.33,4,3.21-.09.68-3.15.94-3.28,3.78-2.41,2,.58,3.52.39,4.19-.51s.39-1.3-1-1.07-1.77-.19-1.39-1.2a1.49,1.49,0,0,0-1-1.84,1.13,1.13,0,0,0-.32,0c-1.4-.25-1.6-1.17-.8-3.25.75-1.9.5-3.15-.65-3.62A3,3,0,0,0,1096.83,763.91Zm-17.34-.72a5.65,5.65,0,0,0-1.3,0,24.9,24.9,0,0,0-2.84.41c-.08.07-3.73,4.62-8.12,10.07s-9.15,11.22-10.55,12.85-2.51,3.54-2.53,4.26c0,1.89,4.45,1.25,5.24-.77,1.15-2.91,4.42-4.73,9.34-5.12,4-.34,4.81-.1,5.39,1.66a6.75,6.75,0,0,1,0,3.88c-.95,2.69.87,4.11,3.14,2.35,2.49-1.95,3.3-8.89,2.4-20.56a22.26,22.26,0,0,1,.43-7.14c.41-1.29.34-1.82-.65-1.89Zm107.47,20a15.12,15.12,0,0,0-3.14-.36c-1.9.23-2.85,2.74-1.4,3.79,1.64,1.13,10.28,2.75,13.42,2.51,1.46-.11,2.9-.82,3.19-1.58.36-1-1.69-2-6.63-3.16-2-.52-3.92-.92-5.49-1.2Zm28.88,6.94c.53,0,1.38.6,3,1.72,4.9,3.35,6.53,4.85,6.22,5.68a4.43,4.43,0,0,1-2.55,1.48c-4,1.12-9.19-3.79-7.85-7.44.32-1,.55-1.47,1.1-1.44Zm-97.46-12.55c3.44.33,1.84,4.56-3.13,8.32-4.61,3.48-7.58,3.79-6.74.77C1111.19,777.19,1111.5,776.94,1118.38,777.61Zm75.38,15.06a40.34,40.34,0,0,0-6.31-.37c-5.46,0-7.7.78-8.52,2.84-.47,1.18,12.26,2.07,16.3,1.13,5.14-1.17,3.68-2.88-1.47-3.64Zm-119.39-20.84c.56.19.78,1.37.59,3.49-.29,3.25-.73,4.42-2,4.87-2.36.86-5.49.11-5-1.19.23-.63.72-.83,1.06-.48s1.28-.84,2.09-2.61c1.15-2.58,2.22-4,2.95-4.07a.71.71,0,0,1,.28-.09ZM1268,830.55c-1.09,0-3,1.38-7,4.74-3.35,2.84-6.5,5.09-7,5-1.07-.19-6.32,7.06-5.79,8,.2.39,2.84-.94,5.73-2.89l5.33-3.58-2.42,4.73c-1.35,2.57-3.52,6.63-4.79,9s-2.29,5.17-2.27,6.13a1.49,1.49,0,0,0,1.5,1.47,2.44,2.44,0,0,0,.39-.06c1-.18,1.74-.81,1.62-1.37-.29-1.28,5.55-11.59,11.92-21,3.42-5.09,4.55-7.49,4.09-8.64-.35-1-.69-1.51-1.35-1.53Zm14,5.89a17,17,0,0,0-5.61,0c-2.76.39-4.45,1.62-7.28,5.22-6.15,7.86-9.09,18.6-5.75,20.89,7.58,5.24,20-2.84,23-14.9,1.64-6.66.22-10.36-4.34-11.24Zm28.92,7.29c-5.93-1-10.12.18-11.14,2.9-.94,2.49-.26,2.55,4.09.53,3.49-1.62,6.75-1.7,7.57-.18.61,1.13-6.63,8.3-8.77,8.67-3.21.56-2.84,3.1.82,6.48q6.13,5.63.3,8.78c-5.41,2.9-11.62.4-11.66-4.73,0-3.36-1.67-1.57-2.41,2.61-.41,2.34.07,4.36,1.29,5.34,3.92,3.16,9.38,3,15-.47,6.08-3.79,6.46-8.69,1-13.31l-2.32-2,3.61-3.45a49.39,49.39,0,0,1,4.93-4.31,7.63,7.63,0,0,0,2.28-3.31c.72-1.89.28-2.57-2-3.09-.92-.19-1.8-.39-2.64-.51Zm-202.7-36c-3.14-.59-10-.49-10.75.53-.42.56-1.09.72-1.46.35s-1.19,0-1.89.76c-1.9,2.31-.24,2.93,6,2.27a49.65,49.65,0,0,1,7.21-.41c1.42.25-.06,3.49-4.73,10.42-1.29,1.89-2.25,3.87-2.13,4.38s-1.39.77-3.35.62c-4.73-.39-6.09,1.69-2.24,3.36l3.06,1.34-3,6.12c-1.65,3.34-2.84,6.63-2.71,7.45.57,2.49,3.22-.11,6.46-6.33,3.39-6.51,4.89-7.52,10.12-6.63,3.79.69,6.63-1.37,5.31-3.85-.51-1-.94-1.09-1.2-.33s-2.31.79-4.64.37c-4.16-.76-4.23-.86-2.46-4a65.11,65.11,0,0,1,4.19-6.51c3-4.22,3.68-8.83,1.17-8.39-1,.17-1.67-.15-1.46-.71.18-.34-.43-.62-1.48-.83Zm25.46,4.93a13.56,13.56,0,0,0-6.72.44,10.21,10.21,0,0,1-4.69.8c-1.65-.27-2.08.27-2.37,2.84a106.19,106.19,0,0,1-4.41,19.69c-1.39,3.73-1.31,4.85.38,6,4.14,2.84,8,2.51,14.65-1.16,2.89-1.59,3.23-2.17,2.93-4.73-.19-1.6-1.78-4.18-3.54-5.75s-3.07-3.25-2.9-3.7a30.45,30.45,0,0,1,4.52-4.56c2.34-2.06,4.74-4.95,5.28-6.42.9-2.52.54-2.83-3.12-3.47Zm69.54,12.82c-1.9-.32-3.79.35-7,2.27-6.05,3.58-10.52,9.88-12.58,17.75-1.61,6.1-.86,9.35,2.93,12.47s11.94,1.9,13.42-2c1.25-3.37-.28-4.43-2.78-2-1.75,1.73-2.73,1.89-6.14.71-2.24-.75-4.28-1.76-4.51-2.22s.94-4.62,2.69-9.22c3.57-9.61,7.39-13.59,13.13-13.55,4.3,0,5.5-2.84,1.67-4a7.27,7.27,0,0,0-.8-.22Zm76.39,14.4c4.73.26,2.74,14-3.15,17.75-6.35,4.08-11.83,3.71-10.51-.7,3.15-10.6,6.63-15.15,12.65-16.9a3,3,0,0,1,1-.18Zm-100-17c-4.88-.71-11.88,2.54-13.54,7-.86,2.32,2.79,1.58,5.77-1.16,3.44-3.2,6.71-3.21,7.19-.08.22,1.45-1,3.64-3.68,7.22-4.44,5.68-11.7,13-12.8,12.77-.82-.15-5,4.32-5.68,6-.28.77,1.36,1.22,4.82,1.38a94.49,94.49,0,0,1,9.93,1.09c4,.74,4.8.54,5.51-1.38s.3-2.29-5.68-3l-6.54-.8,3.66-3.27c5.88-5.34,10.42-10.42,11.16-12.24A11.15,11.15,0,0,1,1182,833c2.57-2.54,2.84-7.27.57-9a6.52,6.52,0,0,0-3-1.14Zm-48.4-7.18c.55.18.31,1-.59,2.34a14.15,14.15,0,0,1-4.07,3.79c-2.48,1.42-2.59,1.37-2.48-.95.08-1.78,1-2.84,3.24-4,2.09-1,3.37-1.38,3.91-1.2Zm94.64,21.25a3,3,0,0,0-1.38.41c-1.28.63-4.21.29-8.64-1-5.37-1.54-6.84-1.64-7.28-.44-.87,2.33.71,3.32,9.87,5.91,4.69,1.33,9.55,3.29,10.77,4.36,1.38,1.2,4.74,2.22,8.87,2.73,5.69.71,6.75.54,7.4-1.2s-.07-2.18-5.24-3.12c-3.65-.67-5.56-1.44-4.91-2s.28-.79-.71-.62a1.76,1.76,0,0,1-2.07-.88c-.17-.64-1.23-1.07-2.4-1a3,3,0,0,1-2.91-1.75c-.37-1-.76-1.45-1.36-1.46ZM1043.37,804.7c-3-.51-6.55.32-8.09,2.64s.2,2.84,3.64.94c3.79-2.06,6-.06,3.74,3.4a17.53,17.53,0,0,1-4.15,4.31c-2.13,1.38-2.11,1.81,0,4.94,1.28,1.89,2,4.22,1.62,5.23-1.79,4.81-9.84,6.84-11.9,3-1.51-2.84-4.35-1.43-3.85,1.9.43,2.84,6.63,4.52,11.7,3.19,3.79-1,4.54-.22,1.54,1.55a2.44,2.44,0,0,0-1.34,2.26c.62,2.72,3,1.53,8.35-4.09,5-5.23,5.84-5.76,8.82-5.21,2.21.4,3.53,1.44,3.92,3.1.31,1.37.94,2.26,1.43,2s1.36.2,2,1.09c1,1.39,1.16,1.24,1.46-1.4.27-2.33.74-3,2-2.84.89.17,1.77,0,1.9-.37.42-1.16-2.38-4.17-4.21-4.55-1.18-.24-1.44-1.83-.85-5,1.5-8.24,1.59-9,1.09-10-.88-1.64-3.11.08-7.4,5.68-4.74,6.23-8.11,8.81-10.55,8.23-1-.25-1.07-.51-.13-.69s.88-1.26-.3-3.11c-1.71-2.69-1.67-2.93,1.29-6.76,1.89-2.5,3-4.74,2.84-5.93-.33-1.91-2.22-3.1-4.54-3.49Zm110.82,22.15a2.44,2.44,0,0,0-.54,0c-1.47,0-2.24,1-3.17,4l-1.21,4-4.83-1c-3.18-.71-5.37-.65-6.36.23-1.22,1.08-.4,1.65,4.31,2.78,4.35,1.06,5.78,1.9,5.68,3.33-.06,1.05-.1,3.07-.06,4.49.12,3.86,2.11,3.44,3.68-.78,1.25-3.35,1.69-3.67,4.35-3.2,7.13,1.26,7.8-2.57.81-4.58-3.37-.94-3.5-1.31-2.42-5.16.82-2.87.78-3.91-.25-4.07Zm52,17c-2-.29-2.32.09-2.6.85s.56,2,1.89,2.68c3.29,1.57,15.45,3.55,16.81,2.74,1.8-1.06.51-2.18-3.88-3.32-6.7-1.76-10.27-2.7-12.23-2.93Zm-83.23-15.16,2.31,2.32c1.27,1.25,3,3.12,3.89,4.2,1.54,1.94,1.48,2-1.9,3.53a12.25,12.25,0,0,1-5.87,1.15c-2.2-.38-2.22-1-.41-5.8Zm-46.66-7.57c-1.8-.14-5.19.85-5.68,2-.25.54.87,1.34,2.47,1.73s3.12,1.09,3.36,1.56c.51.95,7.27,1.5,10.68.89,4.38-.78,2.26-2.93-3.63-3.71-3.21-.43-5.92-1.32-6-1.94-.1-.31-.56-.48-1.16-.52Zm-18.18-.72c.14.06,0,.51-.25,1.28a4.06,4.06,0,0,1-1.95,2.26c-1.67.59-1.15-.82.95-2.65.72-.58,1.1-.91,1.24-.87Zm227,41.6c-.86,0-2.78,1.38-4.32,3.71-1.26,1.9-3.58,5.14-5.23,7.21a33.51,33.51,0,0,0-3.41,4.87c-.23.62.44,1.12,1.53,1.12,1.34,0,3.36-2.1,6.39-6.64a88.36,88.36,0,0,0,5.23-8.52c.48-1.18.32-1.7-.2-1.72Zm-261.43-43.68a35.57,35.57,0,0,0-7.2-.76,4.77,4.77,0,0,0-3.62,2.39c-1,1.9-.81,2.34,1.16,2.11a37.39,37.39,0,0,1,6.17,0c4.38.4,9-.76,8.28-2.1-.3-.45-2.35-1.12-4.82-1.61Zm280.78,74a11.21,11.21,0,0,0-3.32.11c-3.54.63-10.15-.36-10.11-1.5,0-.69-1.48-.59-3.63.21s-3.55,1.64-3.36,2-1.08,2.49-2.84,4.74c-5.21,6.71-5.28,8.32-.8,13,3.5,3.63,3.78,4.53,2.44,6.89-1.78,3-8,6-11.3,5.43-1.21-.23-2.66-2.07-3.32-4.22s-1.56-3.31-2.09-2.6c-1.54,2-.82,7.58,1.22,9.27,2.75,2.22,3.53,2.26,8.65.53,6.44-2.17,9.77-4.86,11.42-9.24,1.44-3.79.95-4.68-6-11.25-1-.95-.57-1.78,2.39-5.12,3.62-4.09,4.62-4.38,13.44-3.88,4.63.26,9.79-1.06,9.84-2.53,0-.89-1.07-1.56-2.68-1.77ZM1137,862.2c-2.33-.48-4.73-.38-6.1.55s-3.58,5.75-7.19,15.51c-5,13.44-6.13,18.51-4.11,17.8a2.51,2.51,0,0,1,2.1,1c4.37,4.62,19.09,1,21.43-5.35,1.18-3.18-.71-6.7-5.41-10-1.51-1.07-2.61-2.39-2.4-2.94s-.19-.81-.95-.55-.77-.19,0-1.07,1.58-1.49,2-1.4,2.36-1.75,4.27-4.06c3.41-4.1,3.48-4.25,1.9-6.48-1-1.36-3.27-2.46-5.6-2.94Zm138.71,25.4a6.67,6.67,0,0,0-4,.6c-3.71,1.76-17.26,12.78-17,13.83.5,2.23,3.08,1.21,9.26-3.7,7.85-6.23,9.58-7,6.92-3.06-3.42,5-13.56,23.55-13.42,24.48.29,1.9,2,1.06,4.31-2,4.16-5.68,16-26.68,16-28.3,0-1-.85-1.54-2-1.77Zm-160-29.09c-4-.2-8.16,4-13,12.83-1.89,3.39-4.14,7.31-5.07,8.73a6,6,0,0,0-.47,5.91c1,2.55,2.13,3.48,5.18,4a13.56,13.56,0,0,0,6.63-.52c1.47-.65,2.37-1.23,2-1.31s.11-1.13,1.09-2.35c2.84-3.51-.28-7.16-6.87-8.14-1.34-.2-.11-2.84,4.74-10.35,3-4.53,6.52-6.63,6.56-3.91,0,2.32,2.16,1.67,3.14-.95a2.63,2.63,0,0,0-1.13-3.08A6.26,6.26,0,0,0,1115.69,858.51Zm76.81,15.59a15.94,15.94,0,0,0-2.19-.23c-4.55-.21-10.72,3.16-12,6.57-.74,1.9-.64,1.9,1.82.61,1.44-.77,2.85-1,3.09-.54s.69.07,1-.86c.63-1.7,5.29-3,6-1.63s-2.6,5.38-7,9a45.93,45.93,0,0,0-4.29,3.78c-.07.19,2.06,1.37,4.73,2.7,5.29,2.67,5.38,3,1.54,7-4.08,4.14-14.21,5.59-12.79,1.82.32-.88.09-1.7-.5-1.8-1.56-.29-3.21,4.84-1.9,5.76,6.77,4.65,23.08-3.78,21.21-10.89-.36-1.37-4.39-4.13-5.9-4-.46,0,1.5-2.63,4.35-5.88,4.2-4.79,5.16-6.42,5-8.64C1194.61,875,1194.23,874.4,1192.5,874.1Zm-159.27-29c-.81-.15-2,.31-3.67,1.39-1.8,1.19-3.43,2-3.6,1.89s-.23-.07-.18.18-1.7,1.69-3.85,3.18c-2.63,1.84-3.66,3.11-3.19,4s1.42.89,2.94.15c2.06-1,1.76-.06-2.94,10.62-2.84,6.43-5.12,12.46-5.11,13.45a2.24,2.24,0,0,0,1.6,2.13c2,.36,4.25-1.52,3.22-2.69s9.48-24.23,13.36-28.94c2.58-3.15,3-4.07,2.07-5a1.11,1.11,0,0,0-.62-.33Zm108,20.46-3,3.55a30.69,30.69,0,0,1-5.89,5.26c-2.63,1.57-2.84,1.55-2.84-.29a11.68,11.68,0,0,1,2.2-5.21c1.74-2.48,3-3.2,5.89-3.26Zm-94.58-16.24a6,6,0,0,0-.85-.11c-4.83-.32-11.24,4.54-13.72,11.22-.58,1.57-.46,3,.24,3.1s-.19,1-2,2c-6.74,3.73-10.08,11.37-6.57,15.16,1.42,1.54,2.77,1.83,6.82,1.52,2.76-.22,5.09-.7,5.25-1.1s1.82-1.28,3.68-2c3.32-1.25,3.31-1.26,1.73,1.15-1.06,1.62-1.15,2.77-.28,3.33,1.89,1.23,3.51.38,7.92-4,2.69-2.66,4.59-3.72,6.29-3.46a22.26,22.26,0,0,0,5.16,0c2.43-.31,2.58,0,1.58,3.23-1.64,5.27-2.67,8.83-2.84,9.76s1.18,1.3,3.62.88c1.89-.32,2.09-1.13,4-16.27,2-15.89,2-17.29.1-17.64-3.23-.59-5.73.31-6.47,2.32-.41,1.08-3.37,4.47-6.63,7.51a68.52,68.52,0,0,0-7.9,8.52l-2,3.09-.39-3.74c-.21-2.05-1.4-4.16-2.68-4.74-2.15-1-2.63-3.37-.6-3,.51.1,2.94-1.49,5.42-3.51,5.45-4.45,6.81-9.58,3.27-12.32A5.34,5.34,0,0,0,1046.63,849.32ZM1215,882.14c-5.89-1.07-13.26,3.45-15.89,9.75-4.59,11.12-5.57,14.92-4.45,17.36,1.66,3.58,8.87,4.23,12.53,1.12,2.59-2.2,2.6-2.26.22-1.79-5.56,1.1-8,.63-8.74-1.6-1-3,2.65-12.43,6.41-16.82,3.36-3.91,8.65-6.23,7.58-3.34a11.66,11.66,0,0,1-2.74,3.5c-1.55,1.37-1.89,2.2-1.31,3.26,1,1.89,5.55-1.89,8.36-7,2-3.72,2-3.73-2-4.47ZM1043.79,853.3a2.66,2.66,0,0,1,.55.16c2.66.94,2,4.07-1.36,7-2.62,2.23-6.63,2.54-7,.54-.12-.54,1.24-2.61,3-4.61C1041.08,854,1042.47,853.13,1043.79,853.3Zm47.09,10.1c-.89.11-2.11,1.63-3.85,4.74l-3.09,5.48-5.31-.36c-2.9-.19-5.68-.09-6.19.21-1.28.76,2.44,3.88,4,3.34,2.52-.89,4.74,2.56,3.65,5.61-.62,1.64-.85,3.42-.58,3.94s1.68-.94,3.1-3.27c2.38-3.86,2.92-4.14,7-4.05,2.65.06,4.58-.48,4.91-1.38s-.29-1.46-2-1.38c-4.36.21-5.08-1.6-2.08-5.32,1.84-2.27,2.47-3.79,2.14-5.16q-.54-2.5-1.59-2.4Zm158.46,30.13a1.43,1.43,0,0,0-.58,0c-2.15.36-8.53-.2-15.52-1.34-5.6-.95-6.28-.75-7,1.33s-.55,2.32,7.58,3.1c11.2,1.07,17.89.4,17-1.72a2.25,2.25,0,0,0-1.49-1.33Zm-186.12-31.34c1.07.08,1.39,4-.08,8.42-.87,2.61-1.4,2.84-4.4,2.31s-3.17-.95-2-2.65a7.41,7.41,0,0,1,2.53-2.48c.63-.23,1.58-1.57,2.11-3,.69-1.88,1.38-2.64,1.85-2.6Zm64.71,17.71c1,.18,7.13,4.17,7.45,4.8a27.89,27.89,0,0,0,2.59,3c2.58,2.73,1.54,4.62-3.6,6.55-3.62,1.36-6.81,1.4-9.65.12-1.28-.56-1.15-2.26.57-7.66,1.19-3.82,2.39-6.9,2.63-6.84Zm33,7.13c-4.67-.85-5.56-.7-5.84,1-.25,1.44,1,2.3,4.74,3.44a39.86,39.86,0,0,0,8.61,1.52c3.78,0,5.68-2.59,2.72-3.79-1.24-.5-1.79-.3-1.57.65s-.09,1.05-1.45-.15c-.93-.87-4.18-2.06-7.22-2.62Zm69.82,14.6c-3.79-.54-8.13-.65-9.37,0-.86.42-1.72.38-2-.08s-.66-.31-.94.34.55,1.58,1.79,2c7.94,3,21.92,2.12,15.8-.94a20.41,20.41,0,0,0-5.32-1.36Zm-126.31-21.08c.26-.09.37,0,.26.37-.24.68.47,1.28,1.53,1.39,1.25.13,1.63,1,1.12,2.38-.44,1.17-1.29,2-1.89,1.89a6.66,6.66,0,0,0-2.65.41c-2.17.78-1.8-3.53.48-5.69A4.15,4.15,0,0,1,1104.41,880.55ZM998,861.38a2.72,2.72,0,0,0-.94-.07,2.21,2.21,0,0,0-1.43,2.78,2.18,2.18,0,0,0,1,1.25c4.37,2.14,11.76,2.85,14.26,1.39s2.21-1.59-5.16-3.61a68.83,68.83,0,0,0-7.78-1.74Zm33.94,6.92c.19-.13,1.84.82,3.67,2.11,3.85,2.73,3.38,5.8-1.16,7.46-6.63,2.42-9.37,1.27-7.73-3.14a21.21,21.21,0,0,1,5.21-6.43Z" transform="translate(-184.13 -132.97)"></path><path id="path3546" class="cls-1" d="M544.66,135.58a11.17,11.17,0,0,0-2.43,3c-1.68,2.52-3,5.64-3,6.93s-.58,2.51-1.28,2.64-2.43,3.06-3.85,6.58-3.37,6.58-4.3,6.75a1.09,1.09,0,0,0-.94,1.23,1.17,1.17,0,0,0,.18.48,1.67,1.67,0,0,1-.74,2.25l-.16.07c-1,.53-1.47,2.39-1.11,4.18.62,2.86,1.28,2.52,6.34-3.8l5.67-7.08,1.78,9a109.94,109.94,0,0,1,1.92,17c0,4.41.58,9.31,1.18,10.81,1,2.58,1.1,2.59,3-.53,1.42-2.39,1.71-7.6,1-18.67-.57-8.44-1.23-20.3-1.47-26.3C545.94,138.57,545.82,135,544.66,135.58ZM242.79,200.23a1.6,1.6,0,0,0-.77.22c-4,2.18-2.47,6.12,3.54,9C249,211,252.63,214,253.73,216c2.24,4,2.12,4.46-6.22,21.94-2.62,5.51-4.41,11.05-4,12.24,1.9,4.85,5.75.78,10.32-10.91L258.64,227l3.11,4.82c1.72,2.69,3.12,6,3.13,7.33a3.74,3.74,0,0,0,1.72,3.17c2.29,1.11,6.42-3.69,5-5.8a10.65,10.65,0,0,1-1.33-2.49,67,67,0,0,0-2.74-6.28c-1.39-3-2.22-6.1-1.82-6.88s0-1.32-.93-1.16-1.29-1.45-.74-4.18.36-4.18-.72-3.67-4.26-1.74-7.32-4.81c-4.07-4.07-6.43-5.14-8.78-4-2.19,1-3.23.63-3.23-1.08C244,200.87,243.46,200.23,242.79,200.23Zm215.72-33.87a4.17,4.17,0,0,0-3.06,2c-2.15,4.12-1.68,4.72,3.26,4a18.53,18.53,0,0,1,8,.63c3.71,1.46,3.78,6.92.08,7.78-12.76,2.95-19.69,8.85-11.1,9.47l3.52.28-4,4.92c-6.16,7.39-4.89,12.75,3.21,13.67,5.19.59,17.83-3.16,20.47-6,2.92-3.16.6-6.25-2.64-3.5a11.39,11.39,0,0,1-6,1.86c-2.2.08-5.71.41-7.81.67-10.13,1.28.49-10.26,12.89-14,4.17-1.26,7.93-2.74,8.41-3.34,1.86-2.37-1.52-4.28-6.09-3.46-4.1.74-4.56.49-2.93-2a7.78,7.78,0,0,0-4.41-11.72C464.83,166.15,461,165.8,458.51,166.36Zm-55.16,18.45a4.58,4.58,0,0,0-.69.37,21.88,21.88,0,0,1-3.1,1.64c-.3,0-1.62,4-3,8.83l-2.5,8.74-5-4.4c-2.79-2.43-4.93-5.13-4.73-5.94s-.37-.79-1.3,0a3.15,3.15,0,0,1-3.6.15,16.31,16.31,0,0,0-5.46-1.83c-2.67-.39-3.52.19-3.5,2.22a3.64,3.64,0,0,0,2.71,3.32c1.49.34,6.23,3.48,10.49,7,7.06,5.79,7.61,6.87,6.86,12.44-.45,3.37-1.27,9.44-1.79,13.47s-1.56,7.49-2.36,7.63-1.35,1.77-1.34,3.65c0,2.2,1.08,3.17,3,2.85,3.65-.67,4.76,2,6.12,14.39l1.08,9.58-7.49,8.84c-4.47,5.28-7,9.56-6.34,10.61,1.38,2.18,8-2.42,12.57-8.66l3-4.11,2.36,6.78c1.28,3.76,3,7.74,3.92,8.74,2.22,2.5,6,1.55,6-1.5,0-1.36-1.5-6.16-3.31-10.67-3.18-7.79-3.17-8.31-.58-11.91,2.31-3.18,2.39-4,.49-4.9-1.23-.59-2.77-.64-3.32-.13-1.66,1.39-3-3.3-3.09-10.47a17.09,17.09,0,0,0-3.4-10.33c-2.28-2.67-2.62-4-1.19-4.26,1.72-.34,1.73-.63,0-1.5S394,230,399,212.82c6-20.69,7.51-28.17,5-28.1A1.72,1.72,0,0,0,403.35,184.81Zm91-15.83c-5.38,1.09-8.69,2.3-10,3.64-1.88,1.9-2.06,2.91-.72,3.61,2.48,1.31,33-4.37,34.65-6.44,2.52-3.19-4.45-3.93-17.8-1.91-2.28.33-4.32.73-6.12,1.09Zm-68.69,13.94c-1.44.27-2.41,2.1-2.48,4.73-.3,10.73-.15,10.52-7.25,11.5-9.32,1.3-10,1.58-7.86,3.41,1,.9,4.53,1.64,7.83,1.57,5.38,0,6.07.53,6.57,5.36.34,3.43,1.4,5.22,2.88,4.95a2.34,2.34,0,0,0,2-2.46c-1.12-8.4-.25-9.68,7.72-10.9,8.75-1.38,11.28-3,11.19-7.09,0-2.48-.25-2.5-1.68,0-.95,1.65-1.93,2.19-2.36,1.26s-3.49-.8-6.9.17l-6.19,1.71-.61-7.27c-.4-5.19-1.24-7.22-2.9-6.92ZM280.44,211.16l.05,5.38c0,3,.78,5.33,1.59,5.18,2.55-.46,3.55,5.83,1.62,10.23a80.67,80.67,0,0,1-6.38,10.73c-2.47,3.53-4.11,7.14-3.6,7.87a2.47,2.47,0,0,0,2.23,1.16c1.63-.29,12-14.48,13-17.86.57-1.83,2.24-1.2,6.22,2.11,6,5,8,5.18,10.67,1.13,1.27-1.89,1.3-2.94.12-3.5a1.91,1.91,0,0,1-.79-2.59h0c.49-.95-.06-1.1-1.23-.45s-3.78-.44-5.77-2.5l-3.57-3.76,4.1-4.93c5.49-6.53,3.63-8.78-3.26-4-5.39,3.77-5.54,3.78-10.28-.2Zm215.87-33.69c-1.65.2-2.68.58-2.68,1,0,.81-1.05,1.68-2.35,1.92-2.16.39-3.26,4.12-1.64,5.52.37.32,5.74-.14,11.95-1,10-1.4,11.26-1.9,10.77-4.44-.39-2-3.16-2.91-9.62-3.2a41.75,41.75,0,0,0-6.42.26ZM358.85,204.36a3.43,3.43,0,0,0-2.82,2.17c-.28,1-4.1,2.54-8.4,3.43-10.29,2.12-13.37,3.64-13.35,6.47,0,1.38,2.11,2.2,5.15,2,7.89-.57,27.06-5.5,28.6-7.33,2.46-2.92-.26-6.48-3.72-4.88-1.85.86-3.22.75-3.22-.33s-1.08-1.64-2.24-1.47ZM586,199.16c-4.72,1.2-7.77,2.93-8.85,5-2.29,4.4-.21,5.75,4.32,2.7a13,13,0,0,1,7.1-2.21c2.81.28,3.4,1.61,3.45,8.58.07,6.53-.61,8.9-3.18,11-3.89,3.27-17.06,28.09-17,32.1,0,1.55.72,2.68,1.55,2.53,1.7-.3,9.48-10.37,9.5-12.23s9.43-18.36,10.64-18.58c.58-.07,2.51,2.42,4.27,5.61,3.42,6.19,8.75,7.48,12.74,3.16,2.78-3,1.47-5.33-2.57-4.59s-8.46-5.88-7.31-11.28c.52-2.38.21-4.68-.64-5.1s-1.2-3.41-.75-6.66c1.12-8.77-3.69-12.43-13.25-10ZM467,232.78a1,1,0,0,0-.38.15c-1,.56-1.55,4.73-1.28,9.85l.46,8.77-7.12.72c-5.73.54-7.05,1.17-7,3.43,0,2.82,4.37,4.05,10.61,3,2.51-.44,3.87.91,5.26,5,2.62,7.84,5.87,6.72,5-1.74l-.67-6.67L479,254c4.8-.86,7.35-2.13,7.93-3.93.67-2-.9-2.62-6.92-2.39-6.85.27-7.9-.17-7.93-3.61C472.07,239,469.1,232.59,467,232.78Zm34.22-5c-5.34,1-7.35,2.13-8.62,5-1.38,3.05-1.23,3.63,1.11,3.17a12.59,12.59,0,0,0,4.95-2.39c1.19-1,4.05-1.66,6.35-1.4,3.43.4,4.1,1.3,3.72,5.37-.47,5.1-6.69,13.9-10.32,14.54-1.44.26-2,3.24-1.82,10.1.23,9.39.41,9.76,5,10,8.42.37,18.63-5.86,19.34-11.8.56-4.38-1.59-4.75-4.29-.7-2.43,3.61-8.95,6-11.3,4.11-1.44-1.15-1.65-1-.69.79s.84,2-.67.78-1.57-2.58-.22-5.59c1-2.18,2.31-3.67,3-3.36,1.86.87,16-5.41,16-7.13,0-.86-2.48-1.13-5.52-.58-6.12,1.11-6.49.54-3.28-6.21a25.81,25.81,0,0,0,2.22-9.35C516.24,227.52,511.8,225.91,501.24,227.82Zm38-.5c-1.76-.07-7.13,4.78-7.06,6.83,0,.83,2.65,1.23,5.91.93a89.83,89.83,0,0,0,12.61-2.38c11.06-3,7.47-6.65-4.4-4.5-3.34.6-6.29.35-6.59-.55A.45.45,0,0,0,539.24,227.32Zm-97.47,18.16c-.24,0-.63.66-1.36,1.91-1.31,2.26-1.84,2.36-2.51.7-1-2.54-5.24,6.32-5.2,11,.07,7-4.09,5.43-13.89-5.19-1.15-1.24-2.72-1.75-3.45-1.11-2.5,2.12,1.44,10.86,6.89,15.4,5.87,4.85,5.76,3.12,1.16,25.91-1.54,7.56-1.51,9.58.35,11.62,1.28,1.35,2.43,1.77,2.54.94.67-3.91,8.61-34,9.84-37.25,2.68-7,6.05-19.41,6-22.14C442.08,246.05,442,245.47,441.77,245.48Zm-84,16.87c-.63.08-.94,3-.63,6.5l.6,6.19-6.2,1.12c-3.44.63-6.44,2.09-6.79,3.3-.6,2.12,2.63,2.85,10.67,2.39,3-.18,4.15,1,5.08,5.3.64,3,2.11,6,3.28,6.61,3.36,1.67,3.39,1.4,2.31-7.47l-1-8.35,5.43-.68a12,12,0,0,0,8.24-4c2.57-3.27,2.5-3.4-.48-2.57-9.2,2.62-15,2.4-15-.5-.15-3.14-3.64-8.19-5.51-7.86ZM280.1,278.72c-1.3.16-2.1.88-2.06,2.11.12,3.15,3.7,6.44,9.13,8.45s6.39,4,3.43,6.51c-2.31,2-9.2,19.73-8.23,21.22,1.11,1.69,5.43-1.21,5.4-3.63,0-2.86,9.62-18.07,11.71-18.44.95-.18,4.48,2.19,7.87,5.28,9.69,8.8,12.61,3.1,3.39-6.59L305.4,288l4.7-5.58c3.46-4.14,4.23-6.05,2.92-7.24s-3.46,0-8.09,4.13c-7.87,7.06-9.23,7.28-15.75,2.68-3.44-2.35-6.95-3.49-9.1-3.2Zm273.5-43c-1.66.35-3.86.91-6.65,1.61-12.83,3.28-15.83,5.22-14.28,9.31a2.19,2.19,0,0,0,2.79,1.34,2.48,2.48,0,0,0,.37-.17A89.63,89.63,0,0,1,548,243.46c7.9-2.38,10.27-3.72,10.67-6.17C559.14,235.15,558.63,234.66,553.6,235.74Zm82.88,12.08a17.43,17.43,0,0,0-7.09,3.44c-3.86,3.44-5,9.27-2.12,10.66.87.42,1.53,0,1.52-.93,0-2.51,4.62-7.8,7.2-8.27,3.15-.57,2.84,2.45-.84,8.19-3.78,5.93-3.91,8.52-.5,11.53s13.84.36,14.52-3.87c.38-2.35-.56-2.89-4.08-2.25-6.59,1.19-7.2-.13-2.75-6.72,5.68-8.37,4.53-13-3.1-12.28a19.69,19.69,0,0,0-2.72.5Zm-37,23.41a5.45,5.45,0,0,0-4.26,3.42,27.51,27.51,0,0,0-1.73,4.38c0,.45,4.53,0,10.19-1l10.24-1.78-.18,7.7c-.25,6.82-1,8.51-6.91,14.85-12.79,13.67-17.7,19.93-16.52,21,1.69,1.5,8.4-3.4,16.29-11.89,5.45-5.83,6.88-6.68,6.85-4.32a45.13,45.13,0,0,0,1.93,9.19c1.34,4.43,2.79,6,5,5.64,2.74-.49,2.86-1.23,1.61-7.49-.76-3.84-1.25-13.53-1.11-21.61.29-17.9-1.42-20.16-15.05-18.9a42.83,42.83,0,0,0-6.27.89ZM496.2,293.42a2.38,2.38,0,0,0-1.51,2.52c0,1.31,2.47,3.61,5.49,5.05,6.33,3,8,6.72,6.65,15.12-.74,4.66-1.72,6.12-4.44,6.61-1.93.35-6.31,3.86-9.75,7.73s-6.58,7.07-7.06,7.17-1,1.79-1.11,3.68c-.3,5,3,3.59,10.84-4.53l6.83-7.12.51,6.29c.3,3.43,1.71,7,3.14,7.88,5.82,3.69,9.27.06,5.63-5.84-2.47-4-2.5-5.07,0-15.82,1.61-6.94,2.27-13.46,1.61-16.45-1.43-6.64-12.66-13.74-16.77-12.25Zm34.62,5.49c-.2,0-.56.58-1.06,1.53-.7,1.33-3.34,3.44-5.86,4.63-3,1.43-4.56,3.2-4.55,5.38s.9,2.83,2.39,2.13c1.32-.61,5-2.32,8.25-3.9,7.56-3.68,8.91-2.33,5.34,5.58-2.58,5.84-3.6,6.54-9.81,7.67-7.22,1.31-9.42,5.06-4.23,7.24,2.33,1,2.39,1.45,0,5.88s-2.44,4.95.29,6.24,16.34-1.7,19.42-4.34c.84-.73,1.5-2.83,1.49-4.75,0-2.84-.68-3.17-3.53-1.68-1.94,1-5.31,2.59-7.48,3.5-3.92,1.68-3.93,1.6-.94-2.55,1.64-2.32,5.74-5.2,9.06-6.38,6.54-2.31,8.43-7.2,2.4-6.15-2,.35-2.81-.05-1.92-.86a23.73,23.73,0,0,0,3.46-6.59c2.67-7.15-.32-11.38-7.22-10.13-3,.55-5.11,0-5.15-1.23,0-.81-.1-1.21-.29-1.18Zm29.21.6c-6.84,1.51-9.85,3.44-9.84,6,0,1.1,5.53.74,14.18-.82,11.57-2.11,14.22-3,14.19-5.1a2.12,2.12,0,0,0-1.86-2.36h-.16a140.19,140.19,0,0,0-16.46,2.32ZM406.2,327.59c-2.71.48-1,4.32,5,11a94.23,94.23,0,0,1,11.18,16.38c4.59,8.77,4.85,10.22,3.64,19.06-.74,5.28-.93,10.2-.53,10.87s1.91.78,3.34.23c1.87-.73,3-4.56,4.31-14.37a194.75,194.75,0,0,1,4.34-22.33A112.86,112.86,0,0,0,440.67,334c.52-4.66.12-5.21-2.8-4.21-2.73.92-3.84,3.26-5.71,12.47-2.12,10.45-2.44,11-4,7.44a50.63,50.63,0,0,0-5.29-8.49c-2-2.56-3.57-5.07-3.58-5.65,0-2-6.58-6.9-10.42-7.73A7.34,7.34,0,0,0,406.2,327.59Zm58.62-9.86c-1.85.33-2.88,5-1.92,8.63.81,3,.25,3.46-5.09,4.07-8.3.95-8.76,4.74-.71,5.6,5.59.6,6.43,1.4,6.65,5.79a52,52,0,0,0,.67,6.59c.23.9.52,2.37.65,3.29.37,3,4.91.84,4.65-2.17-.87-9.83.14-13.27,4.24-14.36,6-1.64,7.16-3.11,5.15-6.74-1-1.76-2.23-2.42-2.78-1.41-2.27,4.19-6.3,2.57-8.3-3.37-1.14-3.42-2.56-6-3.19-5.92ZM295.51,348.49c-.71.3-1.07,1-1.05,2.18,0,2.65,9.09,11.52,11.33,11.12.92-.17-.81,3.2-3.84,7.41a92.15,92.15,0,0,0-7.16,11.55c-2.58,5.84,2,4.27,7.48-2.52,9.1-11.21,9.49-11.48,12.65-8.2,1.57,1.64,4.27,4.69,6,6.79s3.83,3.7,4.78,3.52c5.3-1,3.31-6.52-5.19-14.47l-5.42-5.06,4.71-4.6c2.6-2.53,4.78-5.42,4.73-6.32,0-2.81-5.78-.75-9.93,3.54l-3.9,4.11-6-4.88c-4.32-3.41-7.55-4.83-9.13-4.17Zm64.75-10a.68.68,0,0,0-.39.23c-.6.76-.3,3.67.67,6.42l1.81,5-8.26.92c-13.06,1.47-11.58,4.91,2.42,5.7,4,.22,4.38.88,4.46,8.72,0,6.38.66,8.33,2.44,8s2.36-2.2,2.32-6.21c0-9.17,1-10.82,7.1-11.16,4.39-.25,5.42-.81,5.41-3.14,0-1.88-.86-2.47-2.4-1.55-1.29.77-2.36.67-2.38-.23s-1.08-1.47-2.36-1.24a2,2,0,0,1-2.39-1.38,1.85,1.85,0,0,1-.06-.57c0-3.06-6.4-10.11-8.38-9.5ZM556,312.13c-2.84.61-4.73,1.31-5,1.91-1.19,2.36,2,3.06,12.38,2.86,13.73-.33,17-1.12,17-4,0-3.31-1.43-3.51-16.19-2l-5,.62c-1.14.17-2.18.36-3.13.55Z" transform="translate(-184.13 -132.97)"></path><path id="path3564" class="cls-1" d="M344.49,772.41a25.06,25.06,0,0,0-8.16,1.14c-8.94,2.55-15.32,10.65-16.64,21.14-.39,3.2-2,6.53-3.59,7.5-2.09,1.31-2.9,0-3.14-5.16-.59-12.73-17.44-30-26.78-27.51-3.81,1-4.52,1.89-3.43,4.13.77,1.57,3.52,3.06,6.13,3.33,8.3.82,8.42,4.72.2,7.26-14.31,4.36-28.76,24.58-25.14,35.26,3.78,11.19,20.49,10.35,39.78-2,6.42-4.09,12.38-7.39,13.23-7.26,2.31.23,2.6,11.93.43,20l-1.92,7.27-13.08.83c-13,.86-38.32,3.41-46.95,4.64-2.46.36-4.76,1.88-5.18,3.47-1,3.81,4,4.11,25.32,1.64,24.55-2.91,39.76-2.91,39.08-.39-.31,1.15.7,2.21,2.22,2.35a3.55,3.55,0,0,0,3.58-2.64c.65-2.43,4.68-2.55,24.89-.54,18.07,1.8,24.35,1.86,24.83,0,.39-1.45-2.21-2.91-6.22-3.62l-23.66-4.11-16.85-2.91,1.67-6.23a46.25,46.25,0,0,0,1.28-12.68c-.23-3.53.1-6.75.73-7.26s5.58-.92,11-1.05,10-.9,10.17-1.7c.57-2.08-6.12-4.46-15-5.38-7.43-.75-7.72-1-6.67-7.83,1.45-9.8,8.47-16,17.08-15.1,5.16.52,6.45,1.69,6.83,5.81.46,5,4.26,5.73,4.58.85C355.63,777.47,351.68,772.78,344.49,772.41Zm-73.25-1.76c-3.53-.65-11.79,7.68-20.49,21-5.05,7.71-10.34,15.38-11.7,17.1s-1.89,3.43-1.21,3.85-.67,4.18-3.07,8.33-4,6-3.59,4.09c.79-3.46-6.57-15.2-12.54-20.07-4.93-4-15.17-4.68-17.51-1.15-2.75,4.18.46,8.72,3.68,5.22,2.06-2.26,2.8-2.08,5.2,1.3,1.55,2.16,2.16,4.69,1.45,5.56s.13,1.75,2,1.95c2.91.3,2.82.58,0,1.93-2.22,1.09-2.52,1.67-1,1.86s1.59,1-.78,3.61-3.68,7.66-5.33,18.89c-2.53,17-2.91,17.6-14.54,22-6.33,2.42-9.88,6.19-6.17,6.55,3.4.35,18.74-4,21.59-6.19,5.53-4.17,15.68-16.31,18.72-22.31,2.33-4.56,2.27-2.82-.38,7.63-1.9,7.49-3.43,16.72-3.37,20.54a127.48,127.48,0,0,1-.51,12.85c-1.73,16.55,2.91,33.84,10.6,39.11,3,2,5.23,4.6,5,5.62s1.07,1.6,3,1.26,7.05-.91,11.33-1.2c9.47-.63,21.13-9.54,27.39-20.94,5.28-9.58,4.56-18.78-2.25-31.19-3.48-6.31-6.34-8.72-12.12-10.32-11.34-3-29.17,3.17-21.48,7.47a5,5,0,0,0,4.87-.58c3.83-2.91,17.67-.29,20.59,3.79,3.65,5.09,2.67,6.25-5.52,6.82s-23.52,10.46-27.27,17.67a43.7,43.7,0,0,0-3.5,11.39c-1.28,8.17-4,8.85-4.55,1.11-.23-3-.68-7.4-1-9.62a66.07,66.07,0,0,1-.48-9.94c.09-3.27.2-6.43.22-7,0-6,4-26.39,8.09-42,7.27-27.71,24.45-61.88,35.14-69.76,2.91-2.18,3.81-3.76,2.81-5.35A2,2,0,0,0,271.24,770.65Zm118.87,21.63c-3.14,0-4.81,2.76-3.14,6.19,4,8.2,8.91,31.28,7,33.31-.89,1-.79,1.86.21,2,3.07.31,1.06,13.3-5.37,35.28-.48,1.59-1.24,5.1-1.73,7.79-1.79,9.78-10.32,28.13-19.14,41.46-11.06,16.68-7.85,17.13,5.24.73,19.89-24.89,33.43-71.41,28.23-96.38-4.6-21.88-7-29.34-9.93-30.09a5.89,5.89,0,0,0-1.38-.25Zm-97.7-2.43a20.29,20.29,0,0,1,2.15.21c4,.39,6.57,1.19,5.7,1.83s-.19,2.51,1.45,4.23c4.93,5.1,0,16.26-9.33,21-8.82,4.47-21.69,4-22.14-.74s4.72-14.54,11.2-21.12c4.33-4.39,6.44-5.6,11-5.41ZM221.1,823.71c.39-.07.7.51,1.15,1.57,1,2.48.59,6.3-1.34,10.83-6.15,14.54-8,14.45-4.13-.11,2.38-8.83,3.47-12.15,4.36-12.29ZM299.58,892c-5.5-.55-5.1,3.79,1.23,13.08C308.28,916,308,918,296.89,930c-3.45,3.74-6.76,8.72-7.37,11-1.09,4-.93,4.1,3.36,1.2,3.6-2.44,9.87-8.37,19.82-18.8.35-.37,2.62,1.9,5.1,5.07,5,6.42,11.76,7.37,14.26,1.9,1.09-2.35.79-3.22-.92-2.42s-4.5-1.73-7.26-5.82c-4.59-7-4.54-7,0-10.56,5.38-4.22,11-14,8.17-14.25-1-.1-5.19,2.46-9.23,5.82l-7.27,6.07-4.49-3.94a38.66,38.66,0,0,1-6.79-8.44c-1.16-2.64-3.33-4.78-4.65-4.91Zm-34.77-1.23a5.13,5.13,0,0,1,4.18,3.43c.77,2.12,2,5,2.71,6.38,2.49,4.85-1,10.95-10.17,17.71-10.32,7.62-16.64,8.14-21.36,1.86-4.16-5.52-1.89-12.26,7.07-20.94,6.34-6.15,13.23-9.21,17.62-8.49Z" transform="translate(-184.13 -132.97)"></path><path class="cls-5" d="M276.6,533.11,334,673.81,440.55,421.1q7.26-17.7,14.28-25.07t21.29-7.38q13.5,0,23,7.94T508.57,415a32.74,32.74,0,0,1-1.69,9.53A82.32,82.32,0,0,1,503,434.72c-1.48,3.17-3.16,6.81-5.06,10.89L385.13,699q-2.86,6.35-7.4,16.11a80.91,80.91,0,0,1-10.12,16.68,38.73,38.73,0,0,1-13.77,10.78q-8.18,3.85-19.86,3.86-15.06,0-24-6t-13.24-13.16q-4.28-7.14-14.41-28.25l-67.5-145.92q-2.34-5.45-4.8-10.89a85.15,85.15,0,0,1-4.16-11.12,34.88,34.88,0,0,1-1.69-9.76,21.62,21.62,0,0,1,4.42-12.59,32.87,32.87,0,0,1,12.2-10.21,36.59,36.59,0,0,1,16.88-4q17.66,0,24.27,8.85T276.6,533.11Z" transform="translate(-184.13 -132.97)"></path><rect class="cls-5" x="260.39" y="255.49" width="786.64" height="61.89" rx="30.79"></rect><path class="cls-6" d="M848.67,538.7a83.69,83.69,0,1,1-24.47,59.18,83.78,83.78,0,0,1,24.47-59.18Z" transform="translate(-184.13 -132.97)"></path><path class="cls-2" d="M864.81,554.84a60.86,60.86,0,1,1-17.8,43A60.92,60.92,0,0,1,864.81,554.84Z" transform="translate(-184.13 -132.97)"></path><path class="cls-7" d="M886.33,576.36a30.43,30.43,0,1,1-8.9,21.52A30.44,30.44,0,0,1,886.33,576.36Z" transform="translate(-184.13 -132.97)"></path><path class="cls-6" d="M838.61,505.83,828,495.22l-11.4-11.4L809,499l-15.21,7.61L805.19,518l10.61,10.61.8.8h22.81V506.63Z" transform="translate(-184.13 -132.97)"></path><path class="cls-2" d="M907.85,681.53v30.41H885v-.45a24,24,0,0,0-14.86-22.21l-.27-.11a24.05,24.05,0,0,0-26.27,5.17l-.31.34L811.05,662.4l.34-.3a24.08,24.08,0,0,0,5.17-26.28c0-.07-.08-.19-.12-.26a24,24,0,0,0-22.2-14.87h-.46V575.07h.46a24,24,0,0,0,22.2-14.87l.12-.27a24.07,24.07,0,0,0-5.17-26.27l-.34-.3,4.75-4.72.8.8h22.81l9.28,9.28a83.66,83.66,0,0,0,59.16,142.81Z" transform="translate(-184.13 -132.97)"></path><path class="cls-2" d="M1021.91,575.07v45.62h-.46a24.1,24.1,0,0,0-14.75,5.06V613.09H990.12a83.67,83.67,0,0,0-141.43-74.37l-9.28-9.28V506.63l-.8-.8,4.71-4.75.31.34a24.07,24.07,0,0,0,26.27,5.17l.27-.11A24,24,0,0,0,885,484.27v-.45h45.63v.45a24,24,0,0,0,14.87,22.21c.07,0,.19.07.26.11a24.07,24.07,0,0,0,26.27-5.17l.31-.34,32.28,32.28-.34.3a24,24,0,0,0-5.17,26.27c0,.08.07.19.11.27a24,24,0,0,0,22.2,14.87Z" transform="translate(-184.13 -132.97)"></path><path class="cls-8" d="M930.66,678.37v33.57H907.85v-38h22.81Z" transform="translate(-184.13 -132.97)"></path><path class="cls-8" d="M968.68,655.29v56.65H945.87v-76h22.81Z" transform="translate(-184.13 -132.97)"></path><path class="cls-8" d="M1006.7,625.75v86.19H983.89V613.09h22.81Z" transform="translate(-184.13 -132.97)"></path><path class="cls-5" d="M1021.46,624.49h4.25V571.26h-4.25A20.53,20.53,0,0,1,1007,536.37l3-3-37.66-37.65-3,3a20.53,20.53,0,0,1-34.9-14.46V480H881.23v4.25a20.52,20.52,0,0,1-34.89,14.47l-3-3-4.73,4.73-23.05-23-9.39,18.79-18.79,9.4,23,23-4.74,4.73,3,3a20.53,20.53,0,0,1-14.46,34.9H790v53.23h4.25a20.53,20.53,0,0,1,14.45,34.91l-3,3,37.64,37.64,3-3a20.53,20.53,0,0,1,34.9,14.46v4.25h144.48v-7.6H1010.5V627.8A20.34,20.34,0,0,1,1021.46,624.49Zm-178-118.16a28.19,28.19,0,0,0,45.18-18.71h38.41a28.19,28.19,0,0,0,45.18,18.71L999.4,533.5a28.17,28.17,0,0,0,18.71,45.17v38.42a27.9,27.9,0,0,0-7.61,2.08v-9.88h-16a88.82,88.82,0,0,0,.82-11.41,87.39,87.39,0,0,0-146.5-64.43l-5.58-5.58V506.58Zm143.34,103h-6.71v22.58a79.61,79.61,0,0,1-7.61,12.79V632.1h-9.86A64.54,64.54,0,0,0,865,549.63l-10.75-10.74a79.7,79.7,0,0,1,133.46,59,80.62,80.62,0,0,1-.89,11.41ZM942.07,632.1v11.35a56.35,56.35,0,0,1-34.22,11.46A56.94,56.94,0,0,1,865,560.39l16.16,16.16a34.24,34.24,0,1,0,5.37-5.38L870.35,555a57,57,0,0,1,83.07,77.09Zm-36.91-31.53,5.37-5.38-18.59-18.6a26.73,26.73,0,1,1-5.38,5.38ZM859.6,555a64.55,64.55,0,0,0,82.47,97.64V670a77.47,77.47,0,0,1-7.61,3.13v-3H904v7.41a79.63,79.63,0,0,1-55.19-133.27Zm52,122.71h15.21v30.42H911.65Zm22.81,3.38q3.87-1.23,7.61-2.82v29.86h-7.61Zm15.21-41.4h15.21v68.44H949.67Zm22.81,17a88.13,88.13,0,0,0,7.61-9.56v61h-7.61ZM835.61,520.26l-3.81-3.8V504.4l3.81,3.8Zm-17.44,5.38-3.8-3.8h12.06l3.8,3.8Zm-.53-35.41,6.56,6.57v12.06l-10.58-10.59Zm-9.4,13.42,10.58,10.58H806.76l-6.56-6.56Zm63.1,182a27.74,27.74,0,0,0-27.88,3.78l-27.17-27.17a28.18,28.18,0,0,0-18.7-45.17V578.67A28.18,28.18,0,0,0,816.3,533.5l.25-.26h21.28l5.59,5.58A87.39,87.39,0,0,0,904,685.23v22.91h-15.4a27.89,27.89,0,0,0-17.3-22.49Zm116.35,22.49V616.89h15.21v91.25Z" transform="translate(-184.13 -132.97)"></path><circle class="cls-5" cx="723.72" cy="366.05" r="3.8"></circle><circle class="cls-5" cx="624.86" cy="464.91" r="3.8"></circle><path class="cls-5" d="M837.94,664a3.8,3.8,0,1,0,2.69,1.11A3.78,3.78,0,0,0,837.94,664Z" transform="translate(-184.13 -132.97)"></path><circle class="cls-5" cx="822.57" cy="464.91" r="3.8"></circle><path class="cls-5" d="M977.75,531.78a3.8,3.8,0,1,0-2.69-1.11A3.82,3.82,0,0,0,977.75,531.78Z" transform="translate(-184.13 -132.97)"></path><path class="cls-2" d="M741.68,489.09v39H507.93v-39a7.81,7.81,0,0,1,7.79-7.79H733.89A7.81,7.81,0,0,1,741.68,489.09Z" transform="translate(-184.13 -132.97)"></path><path class="cls-9" d="M718.3,512.46H648.18a7.79,7.79,0,1,1,0-15.58H718.3a7.79,7.79,0,1,1,0,15.58Z" transform="translate(-184.13 -132.97)"></path><path class="cls-7" d="M733.89,660.5H515.72a7.79,7.79,0,0,1-7.79-7.79V528.05H741.68V652.71A7.79,7.79,0,0,1,733.89,660.5Z" transform="translate(-184.13 -132.97)"></path><circle class="cls-2" cx="401.72" cy="519.74" r="62.33"></circle><path class="cls-6" d="M702.72,621.55h23.37v23.37H702.72Z" transform="translate(-184.13 -132.97)"></path><path class="cls-6" d="M663.76,621.55h23.38v23.37H663.76Z" transform="translate(-184.13 -132.97)"></path><path class="cls-8" d="M726.09,551.42v46.75A7.81,7.81,0,0,1,718.3,606H627.1s0,0,0,0a62.54,62.54,0,0,0-56.8-13.63V551.42a7.82,7.82,0,0,1,7.8-7.79H718.3A7.81,7.81,0,0,1,726.09,551.42Z" transform="translate(-184.13 -132.97)"></path><path class="cls-7" d="M585.85,496.88h15.58v15.58H585.85Z" transform="translate(-184.13 -132.97)"></path><path class="cls-7" d="M554.68,496.88h15.58v15.58H554.68Z" transform="translate(-184.13 -132.97)"></path><path class="cls-7" d="M523.52,496.88H539.1v15.58H523.52Z" transform="translate(-184.13 -132.97)"></path><path class="cls-5" d="M733.89,477.4H515.72A11.7,11.7,0,0,0,504,489.09V652.71a11.7,11.7,0,0,0,11.68,11.69h5a66.16,66.16,0,0,0,130.27,0h82.91a11.7,11.7,0,0,0,11.68-11.69V489.09A11.7,11.7,0,0,0,733.89,477.4Zm-218.17,7.79H733.89a3.9,3.9,0,0,1,3.89,3.9v35.06H511.83V489.09A3.9,3.9,0,0,1,515.72,485.19Zm70.13,226c-8.7,0-16.58-9.3-21.61-23.38h43.22C602.42,701.85,594.54,711.15,585.85,711.15Zm-24-31.17a110.92,110.92,0,0,1-3.18-23.37H613A110.29,110.29,0,0,1,609.85,680Zm-34.24-23.37h23.28A117.73,117.73,0,0,0,553.82,680H534.21A57.92,57.92,0,0,1,527.61,656.61Zm58.24-62.34c8.69,0,16.57,9.3,21.6,23.38H564.24c5-14.08,12.91-23.38,21.61-23.38Zm24,31.17A110.37,110.37,0,0,1,613,648.82H558.67a110.37,110.37,0,0,1,3.18-23.38Zm11,31.17h23.28a58.08,58.08,0,0,1-6.6,23.37H617.88A119.23,119.23,0,0,0,620.81,656.61Zm0-7.79a119.23,119.23,0,0,0-2.93-23.38h19.61a58.08,58.08,0,0,1,6.6,23.38Zm-5.11-31.17a64.93,64.93,0,0,0-10-19.83,58.65,58.65,0,0,1,26.78,19.83Zm12.74-15.58a65.3,65.3,0,0,0-54.28-14.49V551.42a3.9,3.9,0,0,1,3.9-3.89H718.3a3.9,3.9,0,0,1,3.9,3.89v46.75a3.91,3.91,0,0,1-3.9,3.9ZM556,617.65H539.21A58.6,58.6,0,0,1,566,597.82,64.71,64.71,0,0,0,556,617.65Zm-21.78,7.79h19.61a117.74,117.74,0,0,0-2.93,23.38H527.61A57.92,57.92,0,0,1,534.21,625.44Zm5,62.33H556a64.71,64.71,0,0,0,10,19.83A58.53,58.53,0,0,1,539.21,687.77Zm66.5,19.83a64.93,64.93,0,0,0,10-19.83h16.79A58.58,58.58,0,0,1,605.71,707.6Zm128.18-51h-82c.07-1.3.2-2.58.2-3.9a65.86,65.86,0,0,0-15.83-42.85h82A11.7,11.7,0,0,0,730,598.17V551.42a11.7,11.7,0,0,0-11.69-11.69H578.06a11.7,11.7,0,0,0-11.69,11.69v38a63.68,63.68,0,0,0-7.79,3v-5.95h-39v7.79h35.13a66.28,66.28,0,0,0-35.13,58.44c0,1.32.12,2.6.2,3.9h-4.1a3.9,3.9,0,0,1-3.89-3.9V531.94h226V652.71A3.9,3.9,0,0,1,733.89,656.61Z" transform="translate(-184.13 -132.97)"></path><path class="cls-5" d="M543,493H519.62v23.38H543Zm-7.79,15.59h-7.79v-7.79h7.79Z" transform="translate(-184.13 -132.97)"></path><path class="cls-5" d="M574.16,493H550.79v23.38h23.37Zm-7.79,15.59h-7.79v-7.79h7.79Z" transform="translate(-184.13 -132.97)"></path><path class="cls-5" d="M605.33,493H582v23.38h23.38Zm-7.8,15.59h-7.79v-7.79h7.79Z" transform="translate(-184.13 -132.97)"></path><path class="cls-5" d="M648.18,516.36H718.3a11.69,11.69,0,1,0,0-23.38H648.18a11.69,11.69,0,1,0,0,23.38Zm28.88-7.79-7.79-7.79h20.15l7.79,7.79Zm45.14-3.9a3.91,3.91,0,0,1-3.9,3.9H708.23l-7.79-7.79H718.3A3.9,3.9,0,0,1,722.2,504.67Zm-74-3.89h10.07l7.8,7.79H648.18a3.9,3.9,0,1,1,0-7.79Z" transform="translate(-184.13 -132.97)"></path><path class="cls-5" d="M519.62,539.73h7.79v7.8h-7.79Z" transform="translate(-184.13 -132.97)"></path><path class="cls-5" d="M535.2,539.73h23.38v7.8H535.2Z" transform="translate(-184.13 -132.97)"></path><path class="cls-5" d="M519.62,555.32h39v7.79h-39Z" transform="translate(-184.13 -132.97)"></path><path class="cls-5" d="M519.62,570.9h39v7.79h-39Z" transform="translate(-184.13 -132.97)"></path><path class="cls-5" d="M659.87,648.82H691V617.65H659.87Zm7.79-23.38h15.58V641H667.66Z" transform="translate(-184.13 -132.97)"></path><path class="cls-5" d="M698.82,648.82H730V617.65H698.82Zm7.8-23.38H722.2V641H706.62Z" transform="translate(-184.13 -132.97)"></path><path class="cls-2" d="M1217.06,484.84h-119.7s0,112.63,46.86,138.7a17.45,17.45,0,0,1,8.88,15.28h24.06a17.44,17.44,0,0,1,8.87-15.28,51.69,51.69,0,0,0,13.64-11.27c23.74-27.08,30.52-80.54,32.45-108.84.77-11.3.77-18.59.77-18.59Z" transform="translate(-184.13 -132.97)"></path><path class="cls-2" d="M1050.41,526.48c.5-43,47.72-23.05,47.72-23.05.3,4.33.71,9.25,1.27,14.57-12.42-4.47-39-11.06-35.23,16.06,3.78,27.53,15.78,46.56,31.77,56.82,8.89,5.71,18.73,6.52,24.41,6.41a81.94,81.94,0,0,0,10.23,15h0a62.47,62.47,0,0,1-40.09-8.3C1071.86,592.76,1049.91,568.69,1050.41,526.48Z" transform="translate(-184.13 -132.97)"></path><rect class="cls-2" x="968.97" y="521.97" width="24.06" height="21.33"></rect><rect class="cls-10" x="931.21" y="558.68" width="99.57" height="22.61"></rect><rect class="cls-11" x="949.97" y="543.3" width="62.07" height="15.38"></rect><path class="cls-12" d="M1177.56,654.94H1152.7a8.06,8.06,0,0,1-8.06-8.06h0a8.06,8.06,0,0,1,8.06-8.06h24.86a8.05,8.05,0,0,1,8,8.06h0A8.05,8.05,0,0,1,1177.56,654.94Z" transform="translate(-184.13 -132.97)"></path><path class="cls-2" d="M1279.84,526.48c-.5-43-47.72-23.05-47.72-23.05-.3,4.33-.71,9.25-1.27,14.57,12.42-4.47,39-11.06,35.23,16.06-3.78,27.53-15.78,46.55-31.76,56.82-8.9,5.71-18.74,6.52-24.42,6.4a81.26,81.26,0,0,1-10.23,15h0a62.47,62.47,0,0,0,40.09-8.3C1258.39,592.76,1280.34,568.69,1279.84,526.48Z" transform="translate(-184.13 -132.97)"></path><path class="cls-5" d="M1180.67,679.78h-31.08V651.43h31.08Zm-24.06-7h17V658.45h-17v14.31Z" transform="translate(-184.13 -132.97)"></path><path class="cls-5" d="M1177.56,658.45H1152.7a11.57,11.57,0,1,1,0-23.14h24.86a11.57,11.57,0,1,1,0,23.14Zm-24.86-16.11a4.55,4.55,0,1,0,0,9.09h24.86a4.55,4.55,0,0,0,0-9.09Z" transform="translate(-184.13 -132.97)"></path><path class="cls-5" d="M1199.67,695.16h-69.09v-22.4h69.09Zm-62.06-7h55v-8.36h-55Z" transform="translate(-184.13 -132.97)"></path><path class="cls-5" d="M1218.42,717.78H1111.83V688.14h106.59v29.64Zm-99.56-7h92.54V695.16h-92.54Z" transform="translate(-184.13 -132.97)"></path><path class="cls-5" d="M1180.67,642.34h-31.08v-3.52a13.92,13.92,0,0,0-7.08-12.21c-11.35-6.32-21-17.85-28.56-34.27-6-12.85-10.73-28.76-14.18-47.29a372.65,372.65,0,0,1-5.92-60.21v-3.52H1236.4v3.52c0,.3,0,7.54-.78,18.82-2,29.54-9,83.22-33.3,110.92a55.59,55.59,0,0,1-14.58,12,13.93,13.93,0,0,0-7.07,12.21v3.52Zm-24.35-7h17.62a20.84,20.84,0,0,1,10.39-14.84A48.2,48.2,0,0,0,1197,610c22.93-26.14,29.63-78.11,31.59-106.76.44-6.48.62-11.66.7-14.84H1100.94c.5,19.06,5,109.87,45,132.12A20.87,20.87,0,0,1,1156.32,635.31Z" transform="translate(-184.13 -132.97)"></path><path class="cls-5" d="M1207.39,616.33h0a50.56,50.56,0,0,1-8.36-.61l-6.06-1.13L1197,610a78.19,78.19,0,0,0,9.79-14.34l1-1.88,2.14,0h.9c5.66,0,14-1,21.54-5.86,16.07-10.32,26.79-29.61,30.18-54.34.82-5.93.1-10.24-2.14-12.8-1.94-2.24-5.28-3.37-9.91-3.37-6.36,0-13.58,2.12-18.51,3.9l-5.28,1.9.6-5.58c.5-4.78.93-9.64,1.26-14.44l.14-2.16,2-.84c.47-.2,11.71-4.88,23.67-4.88,18.42,0,28.69,11.06,28.93,31.13.23,19.74-4.27,37.32-13.39,52.24a84.48,84.48,0,0,1-28.4,28.3A66.47,66.47,0,0,1,1207.39,616.33Zm-.87-7h.87A59.33,59.33,0,0,0,1238,601c11.72-7.05,38.92-28.43,38.38-74.44-.19-16.27-7.35-24.18-21.9-24.18a60.85,60.85,0,0,0-19,3.58q-.26,3.52-.59,7.07a57.83,57.83,0,0,1,15.68-2.6c6.75,0,11.87,1.94,15.21,5.77,3.62,4.16,4.91,10.35,3.8,18.38-1.89,13.76-5.84,25.93-11.74,36.16a66.54,66.54,0,0,1-21.61,23.13,46.61,46.61,0,0,1-24.24,7A90.79,90.79,0,0,1,1206.52,609.3Z" transform="translate(-184.13 -132.97)"></path><path class="cls-5" d="M1122.86,616.33a66.37,66.37,0,0,1-34.18-9.35,84.57,84.57,0,0,1-28.4-28.3c-9.11-14.92-13.62-32.5-13.38-52.24.23-20.07,10.5-31.13,28.92-31.13,12,0,23.2,4.68,23.68,4.88l2,.84.15,2.16c.32,4.81.75,9.67,1.26,14.44l.59,5.57-5.28-1.89c-4.93-1.78-12.15-3.9-18.51-3.9-4.63,0-8,1.13-9.91,3.36-2.24,2.57-3,6.88-2.14,12.81,3.39,24.73,14.11,44,30.18,54.34,7.55,4.85,15.88,5.86,21.54,5.86h.91l2.13,0,1,1.88a78.19,78.19,0,0,0,9.79,14.34l.87,1v1.32c0,.92-.35,3.1-3.54,3.56-.51.08-1.08.15-1.69.21A57.09,57.09,0,0,1,1122.86,616.33Zm-47-114c-14.55,0-21.71,7.91-21.9,24.18-.54,46,26.66,67.39,38.38,74.44a59.33,59.33,0,0,0,30.56,8.34h.87a90.79,90.79,0,0,1-5.45-8.51,46.61,46.61,0,0,1-24.24-7,66.43,66.43,0,0,1-21.6-23.13c-5.91-10.23-9.86-22.4-11.75-36.16-1.1-8,.18-14.22,3.81-18.38,3.34-3.83,8.45-5.77,15.2-5.77a57.83,57.83,0,0,1,15.68,2.6c-.22-2.35-.42-4.72-.59-7.07A60.72,60.72,0,0,0,1075.82,502.34Z" transform="translate(-184.13 -132.97)"></path><rect class="cls-5" x="913.23" y="360.16" width="135.23" height="7.02"></rect><path class="cls-13" d="M1136.26,607.12a62.67,62.67,0,0,1-6.39-8.21l5.86-3.87a55.75,55.75,0,0,0,5.67,7.29Z" transform="translate(-184.13 -132.97)"></path><path class="cls-13" d="M1127.17,594.5c-5.5-9.68-10-22.08-13.36-36.84l6.84-1.56c3.22,14.09,7.47,25.84,12.63,34.93Z" transform="translate(-184.13 -132.97)"></path><path class="cls-13" d="M301.09,485.87l9.81,24.06,18.23-43.22a14.31,14.31,0,0,1,2.44-4.29,4.82,4.82,0,0,1,3.65-1.26,5.93,5.93,0,0,1,3.93,1.36,4,4,0,0,1,1.62,3.14,5.67,5.67,0,0,1-.29,1.63,14.45,14.45,0,0,1-.67,1.75L339,470.9l-19.3,43.34c-.32.72-.74,1.64-1.26,2.75a14.07,14.07,0,0,1-1.73,2.86,6.66,6.66,0,0,1-2.36,1.84,7.9,7.9,0,0,1-3.4.66,7,7,0,0,1-6.37-3.28q-.73-1.22-2.46-4.83l-11.55-25c-.26-.62-.54-1.24-.82-1.86a15,15,0,0,1-.71-1.9,6.16,6.16,0,0,1-.29-1.67,3.69,3.69,0,0,1,.76-2.16,5.53,5.53,0,0,1,2.08-1.74,6.18,6.18,0,0,1,2.89-.68c2,0,3.4.5,4.15,1.51A22.62,22.62,0,0,1,301.09,485.87Z" transform="translate(-184.13 -132.97)"></path><rect class="cls-13" x="145.68" y="328.15" width="40.49" height="10.59" rx="5.29"></rect><path class="cls-13" d="M362.24,509.31h-20.9a11.21,11.21,0,0,0,1.47,5.61,9.35,9.35,0,0,0,3.8,3.66,11.1,11.1,0,0,0,5.22,1.23,14.59,14.59,0,0,0,3.5-.39,12.8,12.8,0,0,0,3.07-1.23,23.18,23.18,0,0,0,2.74-1.8c.84-.64,1.92-1.51,3.25-2.6a3.87,3.87,0,0,1,2.35-.62,4.27,4.27,0,0,1,2.66.79,2.65,2.65,0,0,1,1,2.22,5.54,5.54,0,0,1-1.14,3,12.49,12.49,0,0,1-3.42,3.25,20.6,20.6,0,0,1-5.75,2.58,27.92,27.92,0,0,1-8,1q-10.29,0-16-5.13T330.42,507a20.57,20.57,0,0,1,1.41-7.68,16.67,16.67,0,0,1,4.11-6.07,18.14,18.14,0,0,1,6.65-3.88,27,27,0,0,1,8.77-1.35,23.2,23.2,0,0,1,10.74,2.31,16.33,16.33,0,0,1,6.71,6A14.13,14.13,0,0,1,371,503.7q0,3.53-2.31,4.57A16.28,16.28,0,0,1,362.24,509.31Zm-20.9-5.3h19.37q-.39-4.78-2.95-7.17a9.55,9.55,0,0,0-6.75-2.37,9.19,9.19,0,0,0-6.56,2.41C342.74,498.49,341.71,500.86,341.34,504Z" transform="translate(-184.13 -132.97)"></path><path class="cls-13" d="M356.82,485.1H346.3a4.57,4.57,0,0,1-3.65-1.44,5.51,5.51,0,0,1-1.25-3.73,5.66,5.66,0,0,1,1.22-3.77,4.55,4.55,0,0,1,3.68-1.45h10.52a4.54,4.54,0,0,1,3.68,1.45,6.42,6.42,0,0,1,0,7.5A4.54,4.54,0,0,1,356.82,485.1Z" transform="translate(-184.13 -132.97)"></path></svg> 